<svg width="13" height="12" viewBox="0 0 13 12" fill="none" xmlns="http://www.w3.org/2000/svg">
<path d="M2.78023 1.026L1.94705 0.174C0 2.1378 0 3.561 0 5.4H0.590909L1.18182 5.3622C1.18182 3.6054 1.18182 2.6376 2.78023 1.026ZM11.0524 0.174L10.2204 1.026C11.8182 2.6376 11.8182 3.6054 11.8182 5.4L13 5.3622C13 3.561 13 2.1378 11.0524 0.174ZM6.5 12C6.86595 12.0005 7.22295 11.8852 7.52138 11.6701C7.81981 11.455 8.04484 11.1509 8.16518 10.8H4.83482C4.95516 11.1509 5.18019 11.455 5.47862 11.6701C5.77705 11.8852 6.13405 12.0005 6.5 12ZM10.6364 7.5516V4.8C10.6364 2.8698 9.34523 1.2438 7.59614 0.7548C7.423 0.312 6.99991 0 6.5 0C6.00009 0 5.577 0.312 5.40386 0.7548C3.65418 1.2438 2.36364 2.8698 2.36364 4.8V7.5516L1.35495 8.5758C1.29997 8.63142 1.25637 8.69754 1.22666 8.77034C1.19694 8.84314 1.18171 8.92119 1.18182 9V9.6C1.18182 9.75913 1.24407 9.91174 1.35489 10.0243C1.46571 10.1368 1.61601 10.2 1.77273 10.2H11.2273C11.384 10.2 11.5343 10.1368 11.6451 10.0243C11.7559 9.91174 11.8182 9.75913 11.8182 9.6V9C11.8183 8.92119 11.8031 8.84314 11.7733 8.77034C11.7436 8.69754 11.7 8.63142 11.645 8.5758L10.6364 7.5516Z" fill="#DB1D7D"/>
</svg>
