<svg width="104" height="82" viewBox="0 0 104 82" fill="none" xmlns="http://www.w3.org/2000/svg">
<path d="M93.6203 77.5011C91.4823 76.5616 88.3324 77.5621 84.3447 78.8285C79.9045 80.2385 74.3787 81.9932 67.4822 82H67.4473C61.4016 82 54.8901 80.4863 48.0941 77.5011L37.7143 72.9416L38.7524 71.1178C41.4804 66.3248 47.8975 64.0151 53.6799 65.7442C56.4174 66.5631 58.9496 67.1046 61.2464 67.4481C67.9277 60.0842 79.0249 56.523 89.6235 58.7321C96.3144 60.1266 102.168 63.0792 104 63.8228L95.6962 78.4129L93.6203 77.5011ZM88.5521 62.7C80.8767 61.1003 72.6826 63.1889 66.9985 67.9555C70.2812 68.0349 74.9854 67.6522 77.6909 66.5397C77.8955 66.916 76.9499 65.1767 79.6916 70.2195C79.2607 70.4015 68.9503 74.6196 52.184 69.6047C49.353 68.7574 46.2771 69.4673 44.2701 71.2616L50.1703 73.8534C56.3164 76.553 62.1287 77.9218 67.4476 77.9218C67.4573 77.9218 67.4677 77.9218 67.4774 77.9218C73.5635 77.9159 78.453 76.3631 82.767 74.9932C85.9844 73.9713 88.9092 73.0425 91.6614 73.0425C92.2754 73.0425 92.881 73.0887 93.4791 73.1905L97.762 65.665C94.1664 64.1708 91.4569 63.3054 88.5521 62.7Z" fill="#26C6BA"/>
<path d="M0 7.20669V50.607C0 54.5808 4.10029 57.8137 9.14019 57.8137H55.0443V53.0092H51.9976C50.3176 53.0092 48.9508 51.9316 48.9508 50.607C48.9508 49.2824 50.3176 48.2048 51.9976 48.2048H55.0443C55.0443 46.0777 55.0443 2.29749 55.0443 0H9.14019C4.10029 0 0 3.23292 0 7.20669ZM43.3816 53.0092H9.1404C7.46043 53.0092 6.09367 51.9316 6.09367 50.607C6.09367 49.2824 7.46043 48.2048 9.1404 48.2032H43.3816C43.0434 48.9567 42.8576 49.7649 42.8576 50.607C42.8576 51.4491 43.0432 52.2573 43.3816 53.0092ZM18.2804 4.80446H48.9508V43.4003H18.2804V4.80446ZM12.1869 43.4003H9.14019C8.07221 43.4003 7.04709 43.5469 6.09346 43.8135V7.20669C6.09346 5.8821 7.46023 4.80446 9.14019 4.80446H12.1869V43.4003Z" fill="#26C6BA"/>
</svg>
