<svg width="81" height="81" viewBox="0 0 81 81" fill="none" xmlns="http://www.w3.org/2000/svg">
<path d="M8.10451 0H12.1568C16.4278 0 19.929 3.65159 20.241 8.27873L20.2613 8.94998V71.5998C20.2599 73.8567 19.4869 76.0298 18.0969 77.6843C16.7069 79.3388 14.8025 80.3526 12.7646 80.5229L12.1568 80.5498H8.10451C6.06011 80.5495 4.09128 79.6963 2.59222 78.1612C1.09317 76.6261 0.174536 74.5223 0.0202617 72.2711L0 71.5998V8.94998C0 4.23334 3.30664 0.36695 7.49667 0.0223755L8.10451 0H12.1568H8.10451ZM32.418 0H36.4703C40.7414 0 44.2425 3.65159 44.5545 8.27873L44.5748 8.94998V71.5998C44.5735 73.8567 43.8005 76.0298 42.4105 77.6843C41.0205 79.3388 39.116 80.3526 37.0781 80.5229L36.4703 80.5498H32.418C30.3736 80.5495 28.4048 79.6963 26.9057 78.1612C25.4067 76.6261 24.4881 74.5223 24.3338 72.2711L24.3135 71.5998V8.94998C24.3135 4.23334 27.6202 0.36695 31.8102 0.0223755L32.418 0H36.4703H32.418ZM60.6784 8.94998C64.0823 8.94998 67.1945 11.3262 68.3372 14.9733L68.5276 15.6759L80.7452 68.2346C81.2538 70.4214 80.9952 72.7396 80.0213 74.7247C79.0474 76.7098 77.43 78.2151 75.4935 78.9388L74.91 79.1312L70.9833 80.241C69.0123 80.797 66.9241 80.5149 65.1325 79.4506C63.341 78.3864 61.9769 76.6177 61.3106 74.4951L61.1201 73.8015L48.8985 21.2428C48.3903 19.0549 48.6501 16.7357 49.6256 14.7504C50.6011 12.7651 52.2203 11.2606 54.1584 10.5386L54.7378 10.3462L58.6604 9.23638C59.3331 9.04395 60.0139 8.94998 60.6784 8.94998ZM12.1568 6.71248H8.10451C7.6305 6.71318 7.17166 6.89702 6.80752 7.23212C6.44338 7.56723 6.19689 8.03248 6.1108 8.54723L6.07838 8.94998V71.5998C6.07838 72.6917 6.79563 73.6136 7.7398 73.8015L8.10451 73.8373H12.1568C13.1496 73.8373 13.9803 73.0408 14.1505 72.0026L14.1829 71.5998V8.94998C14.1823 8.42652 14.0158 7.91981 13.7123 7.51769C13.4089 7.11556 12.9876 6.84336 12.5215 6.74828L12.1568 6.71248ZM36.4703 6.71248H32.418C31.944 6.71318 31.4852 6.89702 31.121 7.23212C30.7569 7.56723 30.5104 8.03248 30.4243 8.54723L30.3919 8.94998V71.5998C30.3919 72.6917 31.1091 73.6136 32.0533 73.8015L32.418 73.8373H36.4703C37.4631 73.8373 38.2938 73.0408 38.464 72.0026L38.4964 71.5998V8.94998C38.4958 8.42652 38.3293 7.91981 38.0259 7.51769C37.7224 7.11556 37.3011 6.84336 36.835 6.74828L36.4703 6.71248ZM60.6825 15.6625L60.4272 15.6804L60.1719 15.7385L56.2493 16.8439C55.795 16.9698 55.3944 17.2665 55.1164 17.6829C54.8384 18.0993 54.7003 18.6095 54.7257 19.1261L54.7865 19.5736L67.0081 72.1323C67.1202 72.6118 67.3731 73.0367 67.7273 73.3403C68.0815 73.644 68.5169 73.8093 68.9653 73.8105L69.2206 73.797L69.4718 73.7433L73.4025 72.6246C73.8611 72.4941 74.2638 72.1903 74.5406 71.766C74.8175 71.3417 74.951 70.8238 74.9181 70.3021L74.8573 69.9083L62.6397 17.3406C62.527 16.8615 62.2739 16.4371 61.9198 16.1335C61.5658 15.83 61.1307 15.6643 60.6825 15.6625Z" fill="#26C6BA"/>
</svg>
