<svg width="31" height="31" viewBox="0 0 31 31" fill="none" xmlns="http://www.w3.org/2000/svg">
<path d="M3.10172 0H4.65259C6.2872 0 7.62714 1.40533 7.74656 3.18611L7.75431 3.44444V27.5556C7.75381 28.4241 7.45797 29.2605 6.92599 29.8972C6.39401 30.5339 5.66514 30.9241 4.88522 30.9897L4.65259 31H3.10172C2.3193 30.9999 1.5658 30.6715 0.992086 30.0807C0.418373 29.4899 0.0667979 28.6803 0.00775449 27.8139L0 27.5556V3.44444C0 1.62922 1.2655 0.141222 2.8691 0.00861131L3.10172 0H4.65259H3.10172ZM12.4069 0H13.9578C15.5924 0 16.9323 1.40533 17.0517 3.18611L17.0595 3.44444V27.5556C17.059 28.4241 16.7631 29.2605 16.2312 29.8972C15.6992 30.5339 14.9703 30.9241 14.1904 30.9897L13.9578 31H12.4069C11.6245 30.9999 10.871 30.6715 10.2973 30.0807C9.72355 29.4899 9.37197 28.6803 9.31293 27.8139L9.30517 27.5556V3.44444C9.30517 1.62922 10.5707 0.141222 12.1743 0.00861131L12.4069 0H13.9578H12.4069ZM23.2226 3.44444C24.5253 3.44444 25.7164 4.35894 26.1537 5.76256L26.2266 6.03294L30.9025 26.2604C31.0971 27.102 30.9982 27.9942 30.6254 28.7582C30.2527 29.5222 29.6337 30.1015 28.8926 30.38L28.6692 30.4541L27.1665 30.8812C26.4121 31.0951 25.6129 30.9866 24.9273 30.577C24.2416 30.1674 23.7196 29.4867 23.4645 28.6698L23.3917 28.4029L18.7143 8.17539C18.5198 7.33336 18.6192 6.44081 18.9925 5.67676C19.3659 4.91272 19.9855 4.33369 20.7273 4.05583L20.949 3.98178L22.4503 3.55467C22.7077 3.48061 22.9683 3.44444 23.2226 3.44444ZM4.65259 2.58333H3.10172C2.92032 2.5836 2.74471 2.65435 2.60535 2.78332C2.46598 2.91229 2.37165 3.09134 2.3387 3.28944L2.32629 3.44444V27.5556C2.32629 27.9758 2.6008 28.3306 2.96215 28.4029L3.10172 28.4167H4.65259C5.03255 28.4167 5.35048 28.1101 5.41561 27.7106L5.42802 27.5556V3.44444C5.42778 3.24299 5.36407 3.04798 5.24793 2.89322C5.1318 2.73846 4.97056 2.6337 4.79216 2.59711L4.65259 2.58333ZM13.9578 2.58333H12.4069C12.2255 2.5836 12.0499 2.65435 11.9105 2.78332C11.7712 2.91229 11.6768 3.09134 11.6439 3.28944L11.6315 3.44444V27.5556C11.6315 27.9758 11.906 28.3306 12.2673 28.4029L12.4069 28.4167H13.9578C14.3377 28.4167 14.6556 28.1101 14.7208 27.7106L14.7332 27.5556V3.44444C14.733 3.24299 14.6692 3.04798 14.5531 2.89322C14.437 2.73846 14.2757 2.6337 14.0973 2.59711L13.9578 2.58333ZM23.2242 6.02778L23.1265 6.03467L23.0288 6.05706L21.5275 6.48244C21.3536 6.53093 21.2003 6.64509 21.0939 6.80534C20.9875 6.9656 20.9347 7.16197 20.9444 7.36078L20.9677 7.533L25.6451 27.7605C25.688 27.945 25.7848 28.1085 25.9203 28.2254C26.0559 28.3423 26.2225 28.4059 26.3941 28.4063L26.4918 28.4012L26.588 28.3805L28.0923 27.9499C28.2678 27.8997 28.4219 27.7828 28.5279 27.6195C28.6339 27.4562 28.685 27.2569 28.6723 27.0561L28.6491 26.9046L23.9732 6.67361C23.9301 6.48923 23.8332 6.3259 23.6977 6.20907C23.5622 6.09224 23.3957 6.0285 23.2242 6.02778Z" fill="white"/>
</svg>
