<svg width="89" height="81" viewBox="0 0 89 81" fill="none" xmlns="http://www.w3.org/2000/svg">
<path d="M11.6602 75.7626C14.062 74.6693 17.6005 75.8337 22.0802 77.3074C27.0681 78.9484 33.2756 80.9904 41.0229 80.9983H41.0622C47.8537 80.9983 55.1685 79.2368 62.8029 75.7626L74.4632 70.4566L73.2971 68.3341C70.2325 62.7562 63.0238 60.0683 56.528 62.0806C53.4528 63.0335 50.6082 63.6636 48.028 64.0634C40.5225 55.4936 28.0563 51.3494 16.1501 53.9202C8.63381 55.543 2.0582 58.9792 0 59.8445L9.32822 76.8238L11.6602 75.7626ZM17.3537 58.5378C25.976 56.6761 35.181 59.1068 41.5663 64.654C37.8787 64.7463 32.594 64.301 29.5548 63.0063C29.325 63.4442 30.3872 61.4201 27.3073 67.2887C27.7914 67.5005 39.3737 72.4093 58.2085 66.5732C61.3887 65.5871 64.844 66.4132 67.0987 68.5014L60.4706 71.5176C53.5663 74.6594 47.0369 76.2522 41.0618 76.2522C41.0509 76.2522 41.0392 76.2522 41.0283 76.2522C34.1914 76.2454 28.6987 74.4384 23.8524 72.8441C20.2382 71.6549 16.9525 70.574 13.8607 70.574C13.171 70.574 12.4907 70.6277 11.8189 70.7462L7.00755 61.9884C11.0468 60.2495 14.0905 59.2424 17.3537 58.5378Z" fill="#26C6BA"/>
<path d="M41.8948 7.1207V49.9917C41.8948 53.917 45.4037 57.1105 49.7167 57.1105H89V52.3647H86.3927C84.955 52.3647 83.7854 51.3002 83.7854 49.9917C83.7854 48.6833 84.955 47.6188 86.3927 47.6188H89C89 45.5176 89 2.27137 89 0.00189209H49.7167C45.4037 0.00189209 41.8948 3.19539 41.8948 7.1207ZM79.0194 52.3647H49.7168C48.2792 52.3647 47.1095 51.3002 47.1095 49.9917C47.1095 48.6833 48.2792 47.6188 49.7168 47.6172H79.0194C78.73 48.3615 78.571 49.1599 78.571 49.9917C78.571 50.8235 78.7298 51.6219 79.0194 52.3647ZM57.5386 4.74776H83.7854V42.8729H57.5386V4.74776ZM52.324 42.8729H49.7167C48.8027 42.8729 47.9255 43.0177 47.1094 43.2811V7.1207C47.1094 5.81226 48.279 4.74776 49.7167 4.74776H52.324V42.8729Z" fill="#26C6BA"/>
</svg>
