<svg width="512" height="298" viewBox="0 0 512 298" fill="none" xmlns="http://www.w3.org/2000/svg">
<path fill-rule="evenodd" clip-rule="evenodd" d="M231.818 229.301C218.242 229.301 207.237 240.323 207.237 253.915C207.237 267.51 218.242 278.529 231.818 278.529C245.394 278.529 256.399 267.51 256.399 253.915C256.399 240.323 245.394 229.301 231.818 229.301Z" fill="#FFF5DE"/>
<path fill-rule="evenodd" clip-rule="evenodd" d="M488.29 173.404C486.883 174.987 485.145 175.737 484.407 175.082C483.668 174.425 484.21 172.608 485.615 171.024C487.023 169.438 488.761 168.689 489.499 169.346C490.237 170.004 489.696 171.82 488.29 173.404Z" fill="#FFD524"/>
<path fill-rule="evenodd" clip-rule="evenodd" d="M460.791 69.7677C460.791 71.0392 459.761 72.0702 458.491 72.0702C457.221 72.0702 456.192 71.0392 456.192 69.7677C456.192 68.4961 457.221 67.4652 458.491 67.4652C459.761 67.4652 460.791 68.4961 460.791 69.7677Z" fill="#57E5D4"/>
<path fill-rule="evenodd" clip-rule="evenodd" d="M492.473 247.829C492.473 249.525 491.101 250.899 489.407 250.899C487.713 250.899 486.341 249.525 486.341 247.829C486.341 246.133 487.713 244.759 489.407 244.759C491.101 244.759 492.473 246.133 492.473 247.829Z" fill="#57E5D4"/>
<path fill-rule="evenodd" clip-rule="evenodd" d="M490.94 104.305C490.94 105.012 490.368 105.585 489.662 105.585C488.957 105.585 488.385 105.012 488.385 104.305C488.385 103.599 488.957 103.026 489.662 103.026C490.368 103.026 490.94 103.599 490.94 104.305Z" fill="#57E5D4"/>
<path fill-rule="evenodd" clip-rule="evenodd" d="M48.1551 279.808C48.1551 281.079 47.1257 282.11 45.8556 282.11C44.5855 282.11 43.556 281.079 43.556 279.808C43.556 278.537 44.5855 277.505 45.8556 277.505C47.1257 277.505 48.1551 278.537 48.1551 279.808Z" fill="#57E5D4"/>
<path fill-rule="evenodd" clip-rule="evenodd" d="M310.3 201.523C310.3 202.794 309.27 203.825 308.001 203.825C306.731 203.825 305.701 202.794 305.701 201.523C305.701 200.251 306.731 199.22 308.001 199.22C309.27 199.22 310.3 200.251 310.3 201.523Z" fill="#57E5D4"/>
<path fill-rule="evenodd" clip-rule="evenodd" d="M47.6441 2.48316C47.6441 3.75488 46.6147 4.78564 45.3446 4.78564C44.0745 4.78564 43.045 3.75488 43.045 2.48316C43.045 1.21138 44.0745 0.180542 45.3446 0.180542C46.6147 0.180542 47.6441 1.21138 47.6441 2.48316Z" fill="#57E5D4"/>
<path fill-rule="evenodd" clip-rule="evenodd" d="M47.8994 166.473C47.8994 168.735 46.069 170.566 43.8114 170.566C41.5538 170.566 39.7234 168.735 39.7234 166.473C39.7234 164.212 41.5538 162.38 43.8114 162.38C46.069 162.38 47.8994 164.212 47.8994 166.473Z" fill="#57E5D4"/>
<path fill-rule="evenodd" clip-rule="evenodd" d="M37.2527 61.2868C38.311 63.1236 38.4755 65.0117 37.6201 65.5054C36.7644 66.0017 35.2133 64.9145 34.155 63.0775C33.0964 61.2432 32.9319 59.3527 33.7876 58.8589C34.643 58.3651 36.1944 59.4524 37.2527 61.2868Z" fill="#FFD524"/>
<path fill-rule="evenodd" clip-rule="evenodd" d="M34.6215 223.314C35.2786 224.453 35.3806 225.627 34.8494 225.934C34.3185 226.241 33.3552 225.566 32.6981 224.427C32.0409 223.287 31.9387 222.115 32.4699 221.808C33.0011 221.501 33.9643 222.173 34.6215 223.314Z" fill="#FFD524"/>
<path fill-rule="evenodd" clip-rule="evenodd" d="M134.574 284.068C133.167 285.651 131.429 286.403 130.69 285.746C129.952 285.089 130.494 283.272 131.901 281.688C133.307 280.105 135.046 279.352 135.784 280.01C136.522 280.668 135.98 282.484 134.574 284.068Z" fill="#FFD524"/>
<path fill-rule="evenodd" clip-rule="evenodd" d="M217.218 114.467L202.82 285.889C202.82 285.889 201.312 296.281 209.031 296.299C221.723 296.33 272.205 296.299 272.205 296.299C272.205 296.299 262.651 294.137 262.767 289.269C262.902 283.533 279.596 112.845 279.596 112.845L217.218 114.467Z" fill="#26C6BA"/>
<path fill-rule="evenodd" clip-rule="evenodd" d="M276.3 293.188C273.804 293.196 225.588 293.349 213.228 293.188C207.841 293.122 206.897 288.394 206.852 285.334C206.83 283.865 207.016 282.781 207.016 282.781L207.39 278.327L208.345 266.97L209.187 256.936L210.271 244.045L211.183 233.164L221.413 111.356L283.792 109.737C283.792 109.737 276.761 181.168 271.788 233.164C271.231 238.956 270.705 244.513 270.217 249.696C270.059 251.351 269.905 252.971 269.757 254.547C269.297 259.467 268.876 263.985 268.508 267.973C268.314 270.076 268.137 272.028 267.976 273.819C267.34 280.831 266.97 285.308 266.965 286.16C266.962 286.657 267.003 287.117 267.085 287.547C268.109 293.012 275.363 293.188 276.3 293.188Z" fill="#57E5D4"/>
<path fill-rule="evenodd" clip-rule="evenodd" d="M365.205 21.1868L65.7323 21.1867L100.804 162.247L105.606 181.565L121.941 247.266H425.411L365.205 21.1868Z" fill="#57E5D4"/>
<path fill-rule="evenodd" clip-rule="evenodd" d="M65.732 21.1866L60.8713 22.8086L115.479 252.173L121.941 247.266L65.732 21.1866Z" fill="#26C6BA"/>
<path fill-rule="evenodd" clip-rule="evenodd" d="M115.479 252.173H417.082L425.411 247.266L120.423 247.266L115.479 252.173Z" fill="#26C6BA"/>
<path fill-rule="evenodd" clip-rule="evenodd" d="M221.393 296.366H286.694V293.257H221.393V296.366Z" fill="#26C6BA"/>
<path fill-rule="evenodd" clip-rule="evenodd" d="M121.941 247.266L118.215 232.279L110.893 202.825L251.307 202.85L121.941 247.266Z" fill="#53E2D3"/>
<path fill-rule="evenodd" clip-rule="evenodd" d="M121.941 247.266L118.215 232.279L121.941 247.266H121.941Z" fill="#2BC9BE"/>
<path fill-rule="evenodd" clip-rule="evenodd" d="M365.205 21.1865L65.7321 21.1864L110.867 202.825L413.796 202.884L365.205 21.1865Z" fill="#41D6CE"/>
<path fill-rule="evenodd" clip-rule="evenodd" d="M399.672 195.009L119.273 195.009L87.5187 68.3452L85.0848 58.6311L83.0071 50.3473L78.1372 30.9191L354.494 30.9192L359.842 50.3473L362.123 58.6312L364.796 68.3452L399.672 195.009Z" fill="white"/>
<path fill-rule="evenodd" clip-rule="evenodd" d="M354.494 30.9192L78.1372 30.9191L83.0071 50.3472L359.842 50.3473L354.494 30.9192Z" fill="#57E5D4"/>
<path fill-rule="evenodd" clip-rule="evenodd" d="M91.3905 37.2716C90.0509 37.2716 89.2359 38.3588 89.5698 39.6993C89.9035 41.04 91.2602 42.1273 92.5998 42.1273C93.9394 42.1273 94.7544 41.04 94.4205 39.6993C94.0866 38.3588 92.7299 37.2716 91.3905 37.2716Z" fill="#E9F3FE"/>
<path fill-rule="evenodd" clip-rule="evenodd" d="M99.4491 37.2715C98.1097 37.2715 97.2944 38.3587 97.6286 39.6993C97.9626 41.04 99.3193 42.1273 100.659 42.1273C101.998 42.1273 102.813 41.04 102.479 39.6993C102.145 38.3587 100.789 37.2715 99.4491 37.2715Z" fill="#E9F3FE"/>
<path fill-rule="evenodd" clip-rule="evenodd" d="M111.157 39.6993C110.823 38.3587 109.466 37.2715 108.127 37.2715C106.787 37.2715 105.972 38.3587 106.306 39.6993C106.64 41.04 107.997 42.1273 109.336 42.1273C110.676 42.1273 111.491 41.04 111.157 39.6993Z" fill="#E9F3FE"/>
<path fill-rule="evenodd" clip-rule="evenodd" d="M103.261 257.783C103.261 257.783 109.38 250.635 103.638 246.094C103.638 246.094 99.4437 243.554 96.0241 243.758C96.0241 243.758 100.87 251.897 99.3022 252.705C97.7347 253.513 94.5552 243.249 94.5552 243.249C94.5552 243.249 85.0114 242.323 81.9411 243.799C81.9411 243.799 90.1 250.484 88.3815 250.883C86.6632 251.282 77.8505 244.72 77.8505 244.72C77.8505 244.72 68.9674 246.232 69.4411 251.659C69.9148 257.085 72.9755 258.76 74.321 258.617C75.6665 258.471 83.5357 255.463 83.7071 256.568C83.8783 257.671 79.1415 261.278 75.8243 261.447C75.8243 261.447 82.0869 268.362 86.2491 266.366C90.4115 264.371 90.7666 261.206 93.3612 260.019C95.9559 258.835 98.1706 258.837 97.0993 260.047C96.0282 261.257 91.3328 262.434 89.8489 265.062C88.3652 267.689 87.034 269.462 91.34 268.812C95.6465 268.165 102.646 265.008 102.954 261.396C103.261 257.783 103.261 257.783 103.261 257.783Z" fill="#F2B111"/>
<path fill-rule="evenodd" clip-rule="evenodd" d="M73.806 251.804C73.806 251.804 97.9326 250.876 103.261 257.783C103.261 257.783 104.439 261.316 108.065 264.535L108.63 266.077C108.63 266.077 104.449 261.664 102.953 261.396C102.953 261.396 105.293 252.838 73.806 251.804Z" fill="#F2B111"/>
<path fill-rule="evenodd" clip-rule="evenodd" d="M108.065 264.535C108.065 264.535 113.244 268.369 113.603 275.221L112.663 275.305C112.663 275.305 111.01 268.221 108.02 265.451C105.03 262.68 108.065 264.535 108.065 264.535Z" fill="#F2B111"/>
<path fill-rule="evenodd" clip-rule="evenodd" d="M124.655 248.793C124.655 248.793 113.228 246.178 119.464 235.93C119.464 235.93 123.098 231.381 126.991 230.209C126.991 230.209 124.914 241.256 126.991 241.517C129.068 241.776 128.419 229.04 128.419 229.04C128.419 229.04 138.672 224.103 142.695 224.491C142.695 224.491 136.335 235.277 138.412 235.019C140.489 234.758 147.627 223.841 147.627 223.841C147.627 223.841 158.139 221.895 159.827 228.132C161.514 234.369 158.788 237.488 157.231 237.877C155.674 238.268 145.68 238.138 145.939 239.437C146.199 240.737 152.948 242.817 156.712 241.645C156.712 241.645 152.559 251.912 147.108 251.392C141.657 250.873 139.969 247.493 136.595 247.235C133.221 246.974 130.755 247.885 132.442 248.793C134.129 249.704 139.84 249.092 142.565 251.413C145.291 253.733 147.497 255.161 142.435 256.202C137.374 257.241 128.289 256.591 126.472 252.692C124.655 248.793 124.655 248.793 124.655 248.793Z" fill="#F2B111"/>
<path fill-rule="evenodd" clip-rule="evenodd" d="M155.024 230.082C155.024 230.082 127.77 238.918 124.655 248.793C124.655 248.793 124.785 253.211 122.06 258.28V260.229C122.06 260.229 124.915 253.603 126.472 252.692C126.472 252.692 120.372 244.117 155.024 230.082Z" fill="#F2B111"/>
<path fill-rule="evenodd" clip-rule="evenodd" d="M122.06 258.28C122.06 258.28 117.856 264.67 120.253 272.45L121.334 272.161C121.334 272.161 120.284 263.591 122.483 259.282C124.682 254.971 122.06 258.28 122.06 258.28Z" fill="#F2B111"/>
<path fill-rule="evenodd" clip-rule="evenodd" d="M109.169 241.266C109.169 241.266 121.209 234.541 115.221 224.778C115.221 224.778 111.222 218.313 106.09 216.77C106.09 216.77 108.827 231.33 106.09 231.673C103.352 232.015 104.208 215.228 104.208 215.228C104.208 215.228 90.6922 208.719 85.389 209.233C85.389 209.233 93.7718 223.45 91.0346 223.107C88.2974 222.767 78.8878 208.376 78.8878 208.376C78.8878 208.376 65.0303 205.808 62.8062 214.03C60.5821 222.253 64.1749 226.364 66.2279 226.878C68.2809 227.39 81.454 227.219 81.1119 228.933C80.7695 230.647 71.8737 233.387 66.9121 231.844C66.9121 231.844 72.3868 245.378 79.5723 244.692C86.7575 244.007 88.9816 239.552 93.4297 239.21C97.878 238.869 101.128 240.066 98.9043 241.266C96.6802 242.466 89.1528 241.66 85.5599 244.718C81.9671 247.775 79.0589 249.66 85.7311 251.032C92.4033 252.4 104.379 251.546 106.774 246.406C109.169 241.266 109.169 241.266 109.169 241.266Z" fill="#FFD524"/>
<path fill-rule="evenodd" clip-rule="evenodd" d="M69.1364 216.599C69.1364 216.599 105.063 228.247 109.169 241.266C109.169 241.266 108.998 247.092 112.591 253.772V256.34C112.591 256.34 108.827 247.606 106.774 246.406C106.774 246.406 114.815 235.101 69.1364 216.599Z" fill="#F2B111"/>
<path fill-rule="evenodd" clip-rule="evenodd" d="M112.591 253.772C112.591 253.772 118.131 262.196 114.973 272.45L113.547 272.069C113.547 272.069 114.931 260.771 112.032 255.092C109.133 249.41 112.591 253.772 112.591 253.772Z" fill="#F2B111"/>
<path fill-rule="evenodd" clip-rule="evenodd" d="M109.856 294.69C123.737 294.69 134.99 283.423 134.99 269.523H84.7222C84.7222 283.423 95.9753 294.69 109.856 294.69Z" fill="#F4458D"/>
<path fill-rule="evenodd" clip-rule="evenodd" d="M116.041 294.498C115.019 294.626 113.977 294.69 112.918 294.69C99.0374 294.69 87.7856 283.423 87.7856 269.523H94.0296C94.0296 282.364 103.633 292.958 116.041 294.498Z" fill="#F769AA"/>
<path fill-rule="evenodd" clip-rule="evenodd" d="M135.337 295.969H84.3752C84.3752 294.255 85.7636 292.866 87.476 292.866H132.236C133.949 292.866 135.337 294.255 135.337 295.969Z" fill="#F4458D"/>
<path fill-rule="evenodd" clip-rule="evenodd" d="M135.562 270.294H83.8959V269.523H135.562V270.294Z" fill="#F4458D"/>
<path fill-rule="evenodd" clip-rule="evenodd" d="M365.002 195.009V100.916C377.216 100.916 376.447 100.922 376.55 100.922L388.387 100.929V195.009L365.002 195.009Z" fill="#363C54"/>
<path fill-rule="evenodd" clip-rule="evenodd" d="M301.884 195.009V100.915H366.357V195.009H301.884Z" fill="#282F47"/>
<path fill-rule="evenodd" clip-rule="evenodd" d="M352.724 195.009V111.164H365.09V195.009H352.724Z" fill="#FFD524"/>
<path fill-rule="evenodd" clip-rule="evenodd" d="M289.605 195.009V111.164H354.075V195.009H289.605Z" fill="#F2B111"/>
<path fill-rule="evenodd" clip-rule="evenodd" d="M355.782 192.374V114.411H363.386V192.374H355.782Z" fill="#F2B111"/>
<path fill-rule="evenodd" clip-rule="evenodd" d="M339.93 195.009V106.04H352.299V195.009H339.93Z" fill="#F77721"/>
<path fill-rule="evenodd" clip-rule="evenodd" d="M276.812 195.009V106.04H341.285V195.009H276.812Z" fill="#E86A13"/>
<path fill-rule="evenodd" clip-rule="evenodd" d="M341.285 120.515V114.411H352.299V120.515H341.285Z" fill="#F2B111"/>
<path fill-rule="evenodd" clip-rule="evenodd" d="M341.285 131.462V125.355H352.299V131.462H341.285Z" fill="#E86A13"/>
<path fill-rule="evenodd" clip-rule="evenodd" d="M305.137 195.009V95.5378H338.383V195.009H305.137Z" fill="#363C54"/>
<path fill-rule="evenodd" clip-rule="evenodd" d="M249.692 195.009V95.5379H306.49V195.009H249.692Z" fill="#282F47"/>
<path fill-rule="evenodd" clip-rule="evenodd" d="M306.49 106.726C306.49 104.257 306.49 106.863 306.49 103.906H338.382C338.382 104.094 338.382 103.906 338.382 106.726H306.49Z" fill="#282F47"/>
<path fill-rule="evenodd" clip-rule="evenodd" d="M306.49 153.085C306.49 150.557 306.49 153.173 306.49 150.269H338.382C338.382 152.722 338.382 150.156 338.382 153.085H306.49Z" fill="#282F47"/>
<path fill-rule="evenodd" clip-rule="evenodd" d="M292.344 195.009L292.344 113.725H304.713V195.009H292.344Z" fill="#F4458D"/>
<path fill-rule="evenodd" clip-rule="evenodd" d="M229.225 195.009V113.725H293.698V195.009H229.225Z" fill="#E5287E"/>
<path fill-rule="evenodd" clip-rule="evenodd" d="M293.698 139.148V133.041H304.773V139.148H293.698Z" fill="#E5287E"/>
<path fill-rule="evenodd" clip-rule="evenodd" d="M269.063 195.009L269.062 98.3545H292.446V195.009H269.063Z" fill="#FFD524"/>
<path fill-rule="evenodd" clip-rule="evenodd" d="M205.943 195.009L205.943 98.3545H270.416V195.009H205.943Z" fill="#F2B111"/>
<path fill-rule="evenodd" clip-rule="evenodd" d="M270.416 112.83V106.725H292.446V112.83H270.416Z" fill="#F2B111"/>
<path fill-rule="evenodd" clip-rule="evenodd" d="M270.416 123.777V117.67H292.446V123.777H270.416Z" fill="#F2B111"/>
<path fill-rule="evenodd" clip-rule="evenodd" d="M243.733 195.009V103.479H267.118V195.009H243.733Z" fill="#F4458D"/>
<path fill-rule="evenodd" clip-rule="evenodd" d="M180.615 195.009L180.615 103.479H245.087V195.009H180.615Z" fill="#E5287E"/>
<path fill-rule="evenodd" clip-rule="evenodd" d="M250.118 179.864V111.847H262.084V179.864H250.118Z" fill="#F4458D"/>
<path fill-rule="evenodd" clip-rule="evenodd" d="M207.915 195.009L207.915 92.9742H241.161V195.009H207.915Z" fill="#363C54"/>
<path fill-rule="evenodd" clip-rule="evenodd" d="M144.797 195.009V92.9741H209.269L209.27 195.009H144.797Z" fill="#282F47"/>
<path fill-rule="evenodd" clip-rule="evenodd" d="M233.57 171.664C232.2 176.718 227.854 178.198 225.215 178.198C222.058 178.198 218.119 176.308 216.859 171.664C213.386 171.664 213.386 171.664 212.851 171.664V129.523C216.058 129.523 216.592 129.523 216.859 129.523C218.231 124.47 222.577 122.992 225.215 122.992C227.476 122.992 232.125 124.197 233.57 129.523C237.579 129.523 236.51 129.523 237.579 129.523V171.664C233.838 171.664 237.045 171.664 233.57 171.664Z" fill="#282F47"/>
<path fill-rule="evenodd" clip-rule="evenodd" d="M195.123 195.009L195.123 100.916H207.492L207.492 195.009H195.123Z" fill="#F77721"/>
<path fill-rule="evenodd" clip-rule="evenodd" d="M132.005 195.009L132.005 100.915H196.477L196.477 195.009H132.005Z" fill="#E86A13"/>
<path fill-rule="evenodd" clip-rule="evenodd" d="M196.477 115.391V109.286H207.492V115.391H196.477Z" fill="#E86A13"/>
<path fill-rule="evenodd" clip-rule="evenodd" d="M196.477 121.71C196.477 121.611 196.477 120.43 196.477 120.234H207.492C207.492 120.332 207.492 121.415 207.492 121.71H196.477Z" fill="#E86A13"/>
<path fill-rule="evenodd" clip-rule="evenodd" d="M196.477 119.341C196.477 117.961 196.477 119.341 196.477 117.862H207.492C207.492 117.961 207.492 118.946 207.492 119.341H196.477Z" fill="#E86A13"/>
<path fill-rule="evenodd" clip-rule="evenodd" d="M171.841 195.009L171.841 95.7937H195.225L195.225 195.009H171.841Z" fill="#FFD524"/>
<path fill-rule="evenodd" clip-rule="evenodd" d="M119.274 195.009L108.723 152.925C108.702 152.838 108.723 153.33 108.723 142.801C108.723 124.583 108.723 141.129 108.723 123.998C108.723 119.234 108.723 108.956 108.723 95.7935L173.195 95.7935L173.195 195.009H119.274Z" fill="#F2B111"/>
<path fill-rule="evenodd" clip-rule="evenodd" d="M175.767 122.598V107.716H192.653V122.598C192.653 127.172 189.348 129.425 188.234 130.03C187.02 130.691 183.504 132.06 179.832 129.827C177.566 128.449 175.767 125.879 175.767 122.598Z" fill="#F2B111"/>
<path fill-rule="evenodd" clip-rule="evenodd" d="M146.512 195.009V90.6694H169.897L169.897 195.009H146.512Z" fill="#E5287E"/>
<path fill-rule="evenodd" clip-rule="evenodd" d="M119.274 195.009L93.1161 90.6692L147.866 90.6692V195.009L119.274 195.009Z" fill="#D30D7A"/>
<path fill-rule="evenodd" clip-rule="evenodd" d="M113.791 173.141L93.1162 90.6693H147.867L147.866 146.044L113.791 173.141Z" fill="#DB1D7D"/>
<path fill-rule="evenodd" clip-rule="evenodd" d="M147.867 105.145V99.0404H169.896V105.145H147.867Z" fill="#F4458D"/>
<path fill-rule="evenodd" clip-rule="evenodd" d="M147.867 116.091V109.985H169.896V116.091H147.867Z" fill="#F4458D"/>
<path fill-rule="evenodd" clip-rule="evenodd" d="M311.792 137.912V119.765C311.792 114.419 315.426 111.487 317.329 110.452C321.976 107.925 326.216 109.71 327.855 110.708C329.472 111.691 332.948 114.545 332.948 119.765V137.912C332.948 138.827 332.781 144.305 327.412 147.225C322.93 149.663 318.685 148.065 316.885 146.97C314.427 145.474 313.327 143.436 313.069 142.96C312.352 141.638 311.792 139.925 311.792 137.912Z" fill="#282F47"/>
<path fill-rule="evenodd" clip-rule="evenodd" d="M403.584 96.482C403.584 96.482 397.155 104.119 388.972 100.923C388.972 100.923 387.209 96.6584 387.186 93.5168C387.183 93.128 387.178 92.7544 387.17 92.3988C387.127 88.858 387.007 86.8701 387.007 86.8701H387.017C387.39 86.7142 399.529 81.7229 399.519 82.1373C399.312 91.7106 403.584 96.482 403.584 96.482Z" fill="#ECAF94"/>
<path fill-rule="evenodd" clip-rule="evenodd" d="M398.3 84.4193C397.13 86.5939 393.113 90.8434 387.17 92.3988C387.127 88.8581 387.007 86.8701 387.007 86.8701H387.017C387.352 86.7781 398.648 83.7798 398.3 84.4193Z" fill="#E59D80"/>
<path fill-rule="evenodd" clip-rule="evenodd" d="M384.465 86.5045C384.465 86.5045 398.119 89.7177 399.986 81.1728C401.854 72.628 404.877 67.2887 396.238 64.8761C387.6 62.4611 385.185 65.3494 383.869 68.051C382.553 70.7501 380.962 85.4478 384.465 86.5045Z" fill="#ECAF94"/>
<path fill-rule="evenodd" clip-rule="evenodd" d="M399.521 83.5009C399.705 83.6212 402.644 84.5243 408.208 73.4262C409.082 71.6839 409.675 67.9155 407.641 64.5845C405.605 61.256 398.387 58.6363 392.388 57.4978C386.391 56.3569 384.95 59.7364 383.537 63.1339C382.055 66.6977 377.773 69.6346 377.773 69.6346C382.944 72.5256 389.176 68.3887 391.332 69.0693C393.491 69.7498 394.253 73.1549 394.414 74.2473C394.577 75.3398 394.825 76.2454 397.538 75.2707C400.254 74.296 398.767 79.121 398.333 80.0446C398.333 80.0446 397.963 82.5031 399.521 83.5009Z" fill="#461E0F"/>
<path fill-rule="evenodd" clip-rule="evenodd" d="M434.691 296.586H442.959C444.692 296.586 446.618 294.846 447.101 291.666C447.581 288.483 451.146 286.749 451.917 284.144C452.689 281.54 448.736 277.874 448.736 277.874L448.077 277.025L447.39 276.137L440.841 277.679C440.841 277.679 440.68 279.243 440.578 281.231C440.509 282.666 440.468 284.326 440.553 285.782C440.744 289.256 439.581 292.994 436.5 293.669C433.416 294.345 434.691 296.586 434.691 296.586Z" fill="#F77721"/>
<path fill-rule="evenodd" clip-rule="evenodd" d="M377.139 296.586H399.054C399.263 296.545 399.422 296.499 399.519 296.45C400.98 295.716 400.523 290.108 400.347 288.373C400.313 288.054 400.29 287.864 400.29 287.864C400.29 287.864 392.584 281.694 391.524 286.419C391.488 286.567 391.45 286.711 391.409 286.854V286.856C390.07 291.277 384.091 293.285 380.637 293.846C377.998 294.275 377.313 295.816 377.139 296.586Z" fill="#F77721"/>
<path fill-rule="evenodd" clip-rule="evenodd" d="M381.554 170.045C381.554 170.045 382.725 184.666 384.102 202.239C385.969 226.114 388.218 255.44 388.44 260.994C388.826 270.642 390.369 286.071 390.369 286.071C390.369 286.071 394.028 289.737 401.348 288.192C401.348 288.192 407.874 266.164 409.739 242.858C409.767 242.477 409.795 242.09 409.823 241.707C411.558 217.98 414.254 168.018 414.254 168.018L381.554 170.045Z" fill="#FFD524"/>
<path fill-rule="evenodd" clip-rule="evenodd" d="M381.554 170.045C381.554 170.045 382.725 184.666 384.102 202.239L409.739 242.858C409.767 242.476 409.795 242.09 409.823 241.706C411.558 217.98 414.254 168.018 414.254 168.018L381.554 170.045Z" fill="#F2B111"/>
<path fill-rule="evenodd" clip-rule="evenodd" d="M386.9 171.782C386.9 171.782 407.994 224.732 421.865 249.614C435.734 274.497 440.069 281.443 440.069 281.443C440.069 281.443 448.016 278.26 448.739 276.088C448.739 276.088 443.434 228.05 434.145 216.341C428.896 209.722 422.731 189.864 422.442 182.921C422.154 175.977 420.565 162.234 420.565 162.234L386.9 171.782Z" fill="#FFD524"/>
<path fill-rule="evenodd" clip-rule="evenodd" d="M435.005 162.16L435.228 165.568C435.228 165.568 432.987 171.615 439.27 174.719C439.27 174.719 441.96 175.806 442.07 173.708C442.18 171.61 441.835 172.401 442.052 169.449C442.272 166.494 441.112 163.705 439.162 162.764L437.56 160.914L435.005 162.16Z" fill="#ECAF94"/>
<path fill-rule="evenodd" clip-rule="evenodd" d="M437.461 164.641C435.126 165.391 434.753 165.22 434.753 165.22C434.753 165.22 423.388 144.505 422.235 142.609C421.086 140.711 398.108 119.377 398.108 119.377L404.013 97.3288C404.013 97.3288 430.146 131.214 432.969 136.077C437.632 144.111 440.366 162.774 440.366 162.774C440.366 162.774 439.295 164.05 437.461 164.641Z" fill="#E5287E"/>
<path fill-rule="evenodd" clip-rule="evenodd" d="M377.101 128.031C377.183 132.56 377.446 137.651 377.801 142.819C377.821 143.126 377.845 143.433 377.865 143.74C378.092 146.943 378.338 150.151 378.621 153.282C378.734 154.539 378.854 155.777 378.979 156.997L378.999 157.161C379.01 157.616 379.063 158.113 379.114 158.563C380.267 170.288 381.473 179.552 381.698 179.692C381.966 179.871 382.267 179.961 382.597 179.922C385.668 179.536 394.83 180.235 402.332 178.6C408.661 177.262 414.111 174.729 419.885 171.311C420.651 170.858 422.399 169.656 422.259 168.758C422.118 167.77 421.86 166.343 421.53 164.549C420.393 158.315 418.428 147.585 417.759 135.031C417.629 132.693 417.44 130.383 417.192 128.111C416.548 122.196 415.518 116.578 414.134 111.586C411.563 102.315 407.784 95.213 403.042 92.4372C402.421 92.0892 399.09 94.2127 396.029 96.18C393.2 97.9939 390.224 98.4954 387.329 98.2421L384.781 101.064C381.695 104.656 378.409 109.437 377.515 116.232C377.446 116.734 377.39 117.269 377.341 117.836C377.091 120.605 377.032 124.107 377.101 128.031Z" fill="#F4458D"/>
<path fill-rule="evenodd" clip-rule="evenodd" d="M377.101 128.031C377.183 132.56 377.446 137.651 377.801 142.819C377.821 143.126 377.845 143.433 377.865 143.74C395.405 132.747 398.108 112.63 398.108 112.63C389.478 113.009 382.625 114.994 377.341 117.837C377.091 120.605 377.032 124.107 377.101 128.031Z" fill="#E5287E"/>
<path fill-rule="evenodd" clip-rule="evenodd" d="M325.275 108.672L322.081 107.033C322.081 107.033 320.022 100.23 312.324 101.205C312.324 101.205 309.189 101.839 310.499 103.796C311.813 105.753 311.59 104.835 313.379 107.629C315.167 110.422 318.077 112.244 320.451 111.922L323.124 112.628L325.275 108.672Z" fill="#ECAF94"/>
<path fill-rule="evenodd" clip-rule="evenodd" d="M322.147 109.563C323.052 107.114 324.46 107.273 324.46 107.273C324.46 107.273 350.539 113.779 352.879 114.058C355.217 114.339 380.962 103.993 380.962 103.993C380.962 103.993 391.095 99.4394 395.84 103.599C399.966 107.212 400.152 111.789 399.189 115.631C398.037 120.211 394.169 123.595 389.488 124.191C378.986 125.532 358.03 128.052 353.641 127.441C343.865 126.079 321.716 113.275 321.716 113.275C321.716 113.275 321.437 111.487 322.147 109.563Z" fill="#F4458D"/>
<path fill-rule="evenodd" clip-rule="evenodd" d="M0.887085 297.972C0.887085 297.853 0.887085 296.301 0.887085 296.181L511.891 296.181C511.891 297.797 511.891 296.062 511.891 297.972H0.887085Z" fill="#363C54"/>
<path fill-rule="evenodd" clip-rule="evenodd" d="M118.31 75.5687C118.527 75.5687 118.785 75.5345 119.082 75.466C119.38 75.3976 119.685 75.2185 119.999 74.9286C120.313 74.6387 120.57 74.2723 120.771 73.8294C121.004 73.306 121.121 72.8068 121.121 72.3316C121.121 71.3573 120.662 70.8097 119.746 70.689C119.159 70.6084 118.459 70.5682 117.647 70.5682C116.947 71.8163 116.416 72.7463 116.054 73.3583C116.207 73.922 116.332 74.2924 116.428 74.4696C116.79 75.2023 117.417 75.5687 118.31 75.5687ZM118.998 77.9603C116.899 77.9603 115.556 77.1268 114.969 75.46L114.872 75.2185C114.148 76.2894 113.553 76.9537 113.087 77.2114C112.789 77.3725 112.484 77.453 112.17 77.453C111.583 77.453 111.08 77.3201 110.662 77.0544C110.373 76.8692 110.228 76.68 110.228 76.4867C110.228 76.3901 110.341 76.1726 110.566 75.8344C111.177 74.9326 112.576 72.6135 114.764 68.8772C116.75 65.4952 118.013 63.3935 118.551 62.5722C118.945 61.9843 119.275 61.5656 119.541 61.316C119.83 61.0422 120.107 60.849 120.373 60.7362C120.783 60.5591 121.29 60.4705 121.893 60.4705H122.834C123.686 60.4705 124.406 60.5309 124.993 60.6517C126.521 60.9577 127.285 61.9239 127.285 63.5505C127.285 64.1303 127.16 64.7363 126.911 65.3684C126.662 66.0005 126.308 66.6064 125.849 67.1862C124.908 68.3618 123.815 69.2234 122.568 69.771C123.429 70.3588 123.859 71.2969 123.859 72.5853C123.859 73.0846 123.771 73.6361 123.594 74.2401C123.264 75.3835 122.677 76.2894 121.832 76.9577C120.988 77.6261 120.043 77.9603 118.998 77.9603ZM118.817 68.4544C119.058 68.4303 119.311 68.394 119.577 68.3457C120.413 68.1847 121.207 67.8022 121.959 67.1983C122.711 66.5943 123.244 65.9059 123.557 65.1328C123.823 64.4967 123.956 63.9491 123.956 63.4901C123.956 62.8862 123.789 62.5218 123.455 62.397C123.121 62.2722 122.653 62.2098 122.05 62.2098C121.229 63.9411 120.152 66.0226 118.817 68.4544Z" fill="#363C54"/>
<path fill-rule="evenodd" clip-rule="evenodd" d="M133.787 64.4334C133.602 64.4334 133.425 64.385 133.256 64.2884C132.854 64.0468 132.653 63.6442 132.653 63.0806C132.653 62.6618 132.781 62.223 133.039 61.764C133.521 60.8944 134.108 60.4595 134.8 60.4595C134.977 60.4595 135.146 60.5078 135.307 60.6045C135.717 60.8299 135.922 61.2325 135.922 61.8123C135.922 62.2391 135.789 62.686 135.524 63.153C135.041 64.0066 134.462 64.4334 133.787 64.4334ZM127.152 77.8526C126.549 77.8526 126.022 77.6795 125.572 77.3333C125.073 76.9468 124.824 76.4234 124.824 75.7631C124.824 74.1526 125.773 71.9503 127.671 69.1561C128.443 68.0288 129.12 67.2356 129.703 66.7766C130.286 66.3176 130.96 66.0881 131.724 66.0881C132.641 66.0881 133.099 66.2814 133.099 66.6679C133.099 66.8209 133.023 67.0142 132.87 67.2477C132.765 67.4087 132.44 67.8435 131.893 68.5522C129.392 71.7489 128.141 73.8506 128.141 74.8572C128.141 75.1873 128.282 75.3524 128.563 75.3524C129.183 75.3524 130.55 74.1647 132.665 71.7892C132.874 71.5557 133.091 71.4389 133.316 71.4389C133.638 71.4389 133.799 71.604 133.799 71.9342C133.791 72.5381 132.95 73.7137 131.278 75.4611C129.742 77.0555 128.366 77.8526 127.152 77.8526Z" fill="#363C54"/>
<path fill-rule="evenodd" clip-rule="evenodd" d="M136.947 74.8693C137.012 74.8693 137.076 74.8531 137.14 74.8209C138.009 74.3619 138.962 73.2306 139.999 71.4268C140.771 70.066 141.157 69.2326 141.157 68.9266C141.157 68.7092 141.041 68.6005 140.807 68.6005C140.502 68.6005 140.035 68.8018 139.408 69.2044C138.966 69.4862 138.548 69.8284 138.154 70.2311C137.357 71.0444 136.807 71.8174 136.501 72.5502C136.3 73.0333 136.199 73.448 136.199 73.7943C136.199 74.1888 136.32 74.4948 136.561 74.7122C136.682 74.8169 136.811 74.8693 136.947 74.8693ZM131.097 77.8768C130.711 77.8768 130.393 77.8245 130.144 77.7198C129.758 77.5587 129.565 77.3695 129.565 77.1521C129.565 77.0313 129.693 76.8059 129.951 76.4757C130.297 76.0328 130.928 74.9699 131.845 73.287L132.967 71.2457C134.993 67.5416 136.686 64.7796 138.045 62.9598C139.3 61.293 140.361 60.4595 141.23 60.4595C141.608 60.4595 141.913 60.536 142.146 60.689C142.452 60.8984 142.605 61.0916 142.605 61.2688C142.605 61.3493 142.508 61.5305 142.315 61.8123C141.913 62.384 141.073 63.7771 139.794 65.9915C139.44 66.6115 138.982 67.4007 138.419 68.3589L139.408 67.5496C140.309 66.833 141.145 66.4746 141.917 66.4746C142.689 66.4746 143.256 66.7444 143.618 67.2839C143.851 67.6382 143.968 68.0972 143.968 68.6609C143.968 69.3453 143.783 70.1908 143.413 71.1974C143.059 72.1395 142.569 73.1058 141.941 74.0962C141.652 74.5552 141.354 74.9739 141.049 75.3524C141.772 75.3202 143.18 74.1324 145.271 71.7892C145.488 71.5557 145.709 71.4389 145.934 71.4389C146.256 71.4389 146.417 71.604 146.417 71.9342C146.409 72.377 145.95 73.1339 145.041 74.2049C143.079 76.6126 140.413 77.8204 137.044 77.8285C136.819 77.8285 136.606 77.8043 136.404 77.756C135.246 77.4742 134.507 76.7374 134.185 75.5456C133.992 75.8677 133.859 76.0811 133.787 76.1858C133.071 77.297 132.174 77.8607 131.097 77.8768Z" fill="#363C54"/>
<path fill-rule="evenodd" clip-rule="evenodd" d="M146.597 77.9009C146.059 77.9009 145.632 77.8285 145.319 77.6835C144.756 77.4178 144.338 76.9628 144.064 76.3186C143.952 76.061 143.895 75.7671 143.895 75.4369C143.895 75.2195 143.94 74.8894 144.028 74.4465C144.221 73.5044 145.146 71.8214 146.803 69.3977C148.644 66.692 150.216 64.4817 151.519 62.7665C152.396 61.5989 153.156 60.8782 153.799 60.6044C154.008 60.5159 154.249 60.4716 154.523 60.4716C154.965 60.4716 155.355 60.6165 155.693 60.9064C155.894 61.0755 155.994 61.2245 155.994 61.3533C155.994 61.4419 155.898 61.5748 155.705 61.7519C155.383 62.0579 154.989 62.5652 154.523 63.2738C152.158 66.8571 149.81 70.4525 147.478 74.06C147.221 74.4465 147.092 74.7605 147.092 75.0021C147.092 75.1793 147.138 75.3141 147.231 75.4067C147.323 75.4993 147.438 75.5456 147.575 75.5456C147.655 75.5456 147.747 75.5255 147.852 75.4852C148.632 75.1712 149.979 73.9392 151.893 71.7892C152.102 71.5557 152.319 71.4389 152.544 71.4389C152.866 71.4389 153.027 71.604 153.027 71.9341C153.019 72.4978 152.191 73.6936 150.542 75.5215C149.111 77.1078 147.796 77.9009 146.597 77.9009Z" fill="#363C54"/>
<path fill-rule="evenodd" clip-rule="evenodd" d="M159.601 64.4334C159.416 64.4334 159.239 64.385 159.071 64.2884C158.668 64.0468 158.467 63.6442 158.467 63.0806C158.467 62.6618 158.596 62.223 158.853 61.764C159.336 60.8944 159.923 60.4595 160.615 60.4595C160.792 60.4595 160.96 60.5078 161.121 60.6045C161.531 60.8299 161.736 61.2325 161.736 61.8123C161.736 62.2391 161.604 62.686 161.338 63.153C160.856 64.0066 160.277 64.4334 159.601 64.4334ZM152.967 77.8526C152.364 77.8526 151.837 77.6795 151.387 77.3333C150.888 76.9468 150.639 76.4234 150.639 75.7631C150.639 74.1526 151.588 71.9503 153.485 69.1561C154.257 68.0288 154.935 67.2356 155.518 66.7766C156.101 66.3176 156.775 66.0881 157.539 66.0881C158.455 66.0881 158.914 66.2814 158.914 66.6679C158.914 66.8209 158.837 67.0142 158.685 67.2477C158.58 67.4087 158.254 67.8435 157.707 68.5522C155.206 71.7489 153.956 73.8506 153.956 74.8572C153.956 75.1873 154.097 75.3524 154.378 75.3524C154.997 75.3524 156.365 74.1647 158.48 71.7892C158.689 71.5557 158.906 71.4389 159.131 71.4389C159.453 71.4389 159.613 71.604 159.613 71.9342C159.605 72.5381 158.765 73.7137 157.092 75.4611C155.556 77.0555 154.181 77.8526 152.967 77.8526Z" fill="#363C54"/>
<path fill-rule="evenodd" clip-rule="evenodd" d="M161.097 76.4032C161.772 76.4032 162.697 75.912 163.871 74.9297C164.225 74.6397 164.555 74.3217 164.861 73.9754C164.7 73.8224 164.563 73.6412 164.45 73.4319C164.274 73.1017 164.185 72.7595 164.185 72.4052C164.185 71.6483 164.458 71.1007 165.005 70.7625C165.263 70.6015 165.54 70.521 165.838 70.521C166.256 70.521 166.557 70.6418 166.742 70.8833C167.072 70.0539 167.237 69.4258 167.237 68.9991C167.237 68.532 167.056 68.2985 166.694 68.2985C165.906 68.2985 164.828 69.0514 163.461 70.5572C162.914 71.1531 162.396 71.8053 161.905 72.5139C160.892 73.9714 160.385 75.0102 160.385 75.6302C160.385 76.1456 160.622 76.4032 161.097 76.4032ZM160.337 77.9372C159.678 77.9372 159.127 77.7601 158.684 77.4058C158.17 76.987 157.836 76.367 157.683 75.5456C157.635 75.296 157.611 75.0343 157.611 74.7605C157.611 74.1647 157.735 73.5326 157.985 72.8642C158.355 71.8738 158.926 70.9176 159.698 69.9956C160.47 69.0735 161.258 68.2905 162.062 67.6463C163.389 66.5914 164.587 66.064 165.657 66.064C166.469 66.064 167.171 66.2914 167.762 66.7464C168.353 67.2014 168.648 67.8717 168.648 68.7575C168.648 69.4661 168.475 70.2915 168.13 71.2336C167.912 71.8134 167.651 72.377 167.346 72.9246C167.868 72.9166 168.355 72.6709 168.805 72.1878L169.167 71.7892C169.376 71.5557 169.593 71.4389 169.818 71.4389C170.14 71.4389 170.301 71.604 170.301 71.9342C170.301 72.1435 170.219 72.3911 170.054 72.677C169.889 72.9629 169.718 73.1944 169.541 73.3715C169.131 73.7741 168.56 74.0841 167.828 74.3015C167.313 74.4546 166.795 74.531 166.272 74.531C164.567 76.8018 162.589 77.9372 160.337 77.9372Z" fill="#363C54"/>
<path fill-rule="evenodd" clip-rule="evenodd" d="M170.494 77.9009C169.955 77.9009 169.529 77.8285 169.215 77.6835C168.652 77.4178 168.234 76.9628 167.961 76.3186C167.848 76.061 167.792 75.7671 167.792 75.4369C167.792 75.2195 167.836 74.8894 167.925 74.4465C168.118 73.5044 169.043 71.8214 170.699 69.3977C171.857 67.6986 172.911 66.1928 173.86 64.8803C172.348 64.8803 171.592 64.4454 171.592 63.5758C171.592 63.3101 171.654 63.0826 171.779 62.8933C171.903 62.7041 172.018 62.6095 172.123 62.6095C172.187 62.6095 172.283 62.682 172.412 62.8269C172.822 63.2778 173.437 63.5033 174.258 63.5033L174.861 63.4912L175.416 62.7665C176.292 61.5989 177.052 60.8782 177.696 60.6044C177.905 60.5159 178.146 60.4716 178.419 60.4716C178.862 60.4716 179.252 60.6165 179.589 60.9064C179.79 61.0755 179.891 61.2245 179.891 61.3533C179.891 61.4419 179.795 61.5748 179.602 61.7519C179.28 62.0579 178.838 62.6377 178.275 63.4912C179.079 63.4832 179.537 63.4671 179.65 63.4429C179.819 63.4187 179.951 63.4067 180.048 63.4067C180.273 63.4067 180.386 63.5355 180.386 63.7932C180.386 64.4615 180.132 64.8158 179.626 64.8561C179.441 64.8722 178.685 64.8803 177.358 64.8803C175.355 67.9321 173.361 70.992 171.375 74.06C171.117 74.4465 170.989 74.7605 170.989 75.0021C170.989 75.1793 171.035 75.3141 171.127 75.4067C171.22 75.4993 171.334 75.5456 171.471 75.5456C172.114 75.5456 173.554 74.2935 175.79 71.7892C175.999 71.5557 176.216 71.4389 176.441 71.4389C176.763 71.4389 176.924 71.604 176.924 71.9341C176.916 72.4978 176.087 73.6936 174.439 75.5215C173.007 77.1078 171.692 77.9009 170.494 77.9009Z" fill="#363C54"/>
<path fill-rule="evenodd" clip-rule="evenodd" d="M174.209 77.8768C173.823 77.8768 173.506 77.8245 173.256 77.7198C172.87 77.5587 172.677 77.3695 172.677 77.1521C172.677 77.0313 172.806 76.8059 173.063 76.4757C173.409 76.0328 174.041 74.9699 174.957 73.287L176.079 71.2457C178.106 67.5416 179.799 64.7796 181.158 62.9598C182.412 61.293 183.474 60.4595 184.342 60.4595C184.72 60.4595 185.026 60.536 185.259 60.689C185.565 60.8984 185.717 61.0916 185.717 61.2688C185.717 61.3493 185.621 61.5305 185.428 61.8123C185.026 62.384 183.542 64.6024 180.977 68.4676C182.641 66.8893 183.932 66.1002 184.849 66.1002C185.42 66.1002 185.951 66.3297 186.441 66.7887C186.932 67.2476 187.177 67.8435 187.177 68.5763C187.177 69.2044 186.956 69.9895 186.514 70.9316C186.28 71.4389 185.922 72.1113 185.44 72.9487C184.74 74.1486 184.391 74.8894 184.391 75.1712C184.391 75.292 184.447 75.3524 184.559 75.3524C185.179 75.3524 186.546 74.1647 188.661 71.7892C188.87 71.5557 189.087 71.4389 189.312 71.4389C189.634 71.4389 189.795 71.604 189.795 71.9342C189.787 72.5381 188.946 73.7137 187.274 75.4611C185.738 77.0555 184.362 77.8526 183.148 77.8526C182.545 77.8526 182.018 77.6795 181.568 77.3333C181.069 76.9467 180.82 76.4234 180.82 75.7631C180.82 75.2477 180.971 74.674 181.272 74.0419C181.574 73.4098 182.042 72.5341 182.678 71.4148C183.594 69.8365 184.053 68.8863 184.053 68.5642C184.053 68.2904 183.94 68.1536 183.715 68.1536C182.726 68.1536 180.454 70.831 176.899 76.1858C176.184 77.297 175.287 77.8607 174.209 77.8768Z" fill="#363C54"/>
<path fill-rule="evenodd" clip-rule="evenodd" d="M192.014 77.9614C190.816 77.9614 189.879 77.5668 189.204 76.7777C188.568 76.0368 188.251 75.0907 188.251 73.9392C188.251 72.8521 188.576 71.7127 189.228 70.521C189.638 69.756 190.096 69.0796 190.603 68.4918C191.986 66.8732 193.458 66.064 195.018 66.064C195.46 66.064 195.858 66.1445 196.212 66.3055C197.081 66.6921 197.515 67.449 197.515 68.5763C197.515 69.5184 197.322 70.3076 196.936 70.9437C196.614 71.4832 196.168 71.9785 195.597 72.4294C194.68 73.1541 193.643 73.5165 192.485 73.5165C192.147 73.5165 191.821 73.4762 191.508 73.3956C191.379 73.8869 191.315 74.3297 191.315 74.7243C191.315 75.6181 191.721 76.065 192.533 76.065C192.911 76.065 193.418 75.9201 194.053 75.6302C194.471 75.4369 194.889 75.1913 195.307 74.8934C196.095 74.3297 197.161 73.295 198.504 71.7892C198.713 71.5557 198.93 71.4389 199.155 71.4389C199.477 71.4389 199.638 71.604 199.638 71.9342C199.63 72.3287 199.272 72.9608 198.564 73.8305C198.444 73.9835 198.174 74.3096 197.756 74.8089C197.338 75.3081 196.815 75.8074 196.188 76.3066C194.813 77.4098 193.422 77.9614 192.014 77.9614ZM192.473 72.3207C192.746 72.3207 193.044 72.2643 193.365 72.1516C194.081 71.8939 194.7 71.4953 195.223 70.9558C195.746 70.4163 196.007 69.7882 196.007 69.0715C195.999 68.4273 195.798 68.1053 195.404 68.1053C195.018 68.1053 194.624 68.2864 194.222 68.6488C193.434 69.3574 192.73 70.3961 192.111 71.765C192.038 71.918 191.974 72.0711 191.918 72.2241C192.135 72.2885 192.32 72.3207 192.473 72.3207ZM196.007 65.3151C195.718 65.3151 195.171 65.0393 194.366 64.4877C193.562 63.9361 193.16 63.4389 193.16 62.996C193.16 62.7222 193.251 62.4726 193.432 62.2471C193.613 62.0217 193.763 61.9089 193.884 61.9089C194.157 61.9089 194.401 62.0559 194.614 62.3498C194.827 62.6437 195.006 62.8712 195.151 63.0322L196.369 64.3851C196.489 64.5219 196.55 64.6629 196.55 64.8078C196.55 65.146 196.369 65.3151 196.007 65.3151Z" fill="#363C54"/>
<path fill-rule="evenodd" clip-rule="evenodd" d="M202.883 81.5487C203.172 81.5487 203.566 81.2105 204.065 80.5341C204.628 79.7691 205.066 78.8431 205.38 77.756C205.508 77.289 205.573 76.826 205.573 76.367C203.635 79.0082 202.666 80.6428 202.666 81.2709C202.666 81.4561 202.738 81.5487 202.883 81.5487ZM200.627 75.4128C201.19 75.4128 202.018 75.0142 203.112 74.217C203.771 73.7339 204.523 72.9125 205.368 71.753C205.681 71.3182 205.947 70.9035 206.164 70.5089C206.381 70.1143 206.49 69.6875 206.49 69.2286C206.49 68.5199 206.313 68.1656 205.959 68.1656C205.38 68.1656 204.515 68.7937 203.365 70.0499C201.773 71.8053 200.764 73.2467 200.337 74.374C200.241 74.6398 200.193 74.8532 200.193 75.0142C200.193 75.2799 200.337 75.4128 200.627 75.4128ZM201.918 83.5658C201.049 83.5658 200.43 83.2437 200.06 82.5995C199.899 82.3177 199.819 81.9755 199.819 81.5729C199.819 80.7837 200.112 79.8778 200.699 78.8552C201.053 78.2432 201.463 77.5829 201.93 76.8743C201.214 77.3172 200.543 77.5386 199.915 77.5386C199.32 77.5386 198.814 77.3454 198.395 76.9588C197.865 76.4596 197.599 75.7751 197.599 74.9055C197.599 74.2532 197.762 73.5104 198.088 72.677C198.413 71.8436 198.906 71.0041 199.565 70.1586C200.965 68.371 202.465 67.1591 204.065 66.5229C204.58 66.3136 205.046 66.2089 205.464 66.2089C206.26 66.2089 206.815 66.5109 207.129 67.1148C207.386 67.6221 207.547 68.2059 207.611 68.8662C208.657 67.5053 209.437 66.676 209.952 66.378C210.305 66.1767 210.635 66.076 210.941 66.076C211.246 66.076 211.52 66.1324 211.761 66.2452C212.155 66.4384 212.352 66.6276 212.352 66.8128C212.352 66.8853 212.288 67.0101 212.159 67.1873C212.063 67.3161 211.894 67.5657 211.652 67.9362C210.486 69.7318 209.019 71.8013 207.25 74.1445C207.338 74.1768 207.443 74.1929 207.563 74.1929C208.4 74.1929 209.163 73.8265 209.855 73.0937C210.225 72.7072 210.631 72.2724 211.073 71.7892C211.283 71.5557 211.5 71.4389 211.725 71.4389C212.047 71.4389 212.207 71.604 212.207 71.9342C212.199 72.3207 211.853 72.9407 211.17 73.7943C210.124 75.0907 208.798 75.7671 207.189 75.8235C207.077 77.8124 206.514 79.6403 205.5 81.3071C205.066 82.0318 204.455 82.6197 203.667 83.0706C203.08 83.4007 202.497 83.5658 201.918 83.5658Z" fill="#363C54"/>
<path fill-rule="evenodd" clip-rule="evenodd" d="M211.761 77.9493C211.23 77.9493 210.76 77.7842 210.35 77.4541C209.883 77.0917 209.65 76.5844 209.65 75.9322C209.65 74.6921 210.599 72.4374 212.497 69.1682C213.188 67.9845 213.816 67.1732 214.379 66.7343C214.942 66.2955 215.496 66.076 216.043 66.076C216.743 66.076 217.093 66.2411 217.093 66.5713C217.093 66.7967 216.884 67.2477 216.465 67.9241C216.071 68.5602 215.601 69.3896 215.054 70.4122C214.572 71.298 214.222 71.9261 214.005 72.2965C213.225 73.6251 212.835 74.5351 212.835 75.0263C212.835 75.3323 212.951 75.4853 213.184 75.4853C213.45 75.4853 214.103 74.7646 215.145 73.3232C216.186 71.8818 217.161 70.4928 218.07 69.1561C218.842 68.0288 219.519 67.2356 220.102 66.7766C220.686 66.3176 221.359 66.0881 222.123 66.0881C223.04 66.0881 223.498 66.2814 223.498 66.6679C223.498 66.8209 223.422 67.0142 223.269 67.2477C223.164 67.4087 222.835 67.8435 222.28 68.5522C219.787 71.7489 218.54 73.8506 218.54 74.8572C218.54 75.1873 218.681 75.3524 218.963 75.3524C219.582 75.3524 220.949 74.1647 223.064 71.7892C223.273 71.5557 223.49 71.4389 223.715 71.4389C224.037 71.4389 224.198 71.604 224.198 71.9342C224.19 72.5381 223.349 73.7137 221.677 75.4611C220.141 77.0555 218.765 77.8526 217.551 77.8526C216.948 77.8526 216.421 77.6795 215.971 77.3333C215.472 76.9467 215.223 76.3026 215.223 75.4007C214.017 77.0998 212.863 77.9493 211.761 77.9493Z" fill="#363C54"/>
<path fill-rule="evenodd" clip-rule="evenodd" d="M226.417 77.9614C225.219 77.9614 224.282 77.5668 223.607 76.7777C222.971 76.0368 222.654 75.0907 222.654 73.9392C222.654 72.8521 222.98 71.7127 223.631 70.521C224.041 69.756 224.499 69.0796 225.006 68.4918C226.389 66.8732 227.861 66.064 229.421 66.064C229.863 66.064 230.261 66.1445 230.615 66.3055C231.484 66.6921 231.918 67.449 231.918 68.5763C231.918 69.5184 231.725 70.3076 231.339 70.9437C231.017 71.4832 230.571 71.9785 230 72.4294C229.083 73.1541 228.046 73.5165 226.888 73.5165C226.55 73.5165 226.224 73.4762 225.911 73.3956C225.782 73.8869 225.718 74.3297 225.718 74.7243C225.718 75.6181 226.124 76.065 226.936 76.065C227.314 76.065 227.821 75.9201 228.456 75.6302C228.874 75.4369 229.292 75.1913 229.711 74.8934C230.499 74.3297 231.564 73.295 232.907 71.7892C233.116 71.5557 233.333 71.4389 233.559 71.4389C233.88 71.4389 234.041 71.604 234.041 71.9342C234.033 72.3287 233.675 72.9608 232.968 73.8305C232.847 73.9835 232.577 74.3096 232.159 74.8089C231.741 75.3081 231.219 75.8074 230.591 76.3066C229.216 77.4098 227.825 77.9614 226.417 77.9614ZM226.876 72.3207C227.149 72.3207 227.447 72.2643 227.768 72.1516C228.484 71.8939 229.103 71.4953 229.626 70.9558C230.149 70.4163 230.41 69.7882 230.41 69.0715C230.402 68.4273 230.201 68.1053 229.807 68.1053C229.421 68.1053 229.027 68.2864 228.625 68.6488C227.837 69.3574 227.133 70.3961 226.514 71.7651C226.442 71.918 226.377 72.0711 226.321 72.2241C226.538 72.2885 226.723 72.3207 226.876 72.3207Z" fill="#363C54"/>
<path fill-rule="evenodd" clip-rule="evenodd" d="M242.594 77.9734C241.597 77.9734 240.768 77.6755 240.109 77.0796C239.272 76.3307 238.85 75.2396 238.842 73.8063C238.842 72.4213 239.309 70.9115 240.242 69.2769C241.07 67.8194 242.152 66.2934 243.487 64.6991C244.926 62.9839 246.418 61.7881 247.962 61.1117C248.903 60.685 249.771 60.4716 250.567 60.4716C251.468 60.4716 252.172 60.7413 252.678 61.2809C253.217 61.8687 253.487 62.6296 253.487 63.5637C253.487 64.4414 253.298 65.0775 252.92 65.4721C252.767 65.6412 252.61 65.7258 252.449 65.7258L252.274 65.7137C252.174 65.7056 252.083 65.5889 252.003 65.3634C251.906 65.0896 251.858 64.7554 251.858 64.3609C251.858 63.298 251.544 62.7665 250.917 62.7665C249.558 62.7665 247.158 65.1863 243.716 70.0257C242.292 72.0227 241.581 73.5446 241.581 74.5914C241.581 74.9377 241.653 75.2356 241.798 75.4852C242.031 75.8718 242.397 76.065 242.895 76.065C243.812 76.065 245.002 75.445 246.466 74.2049C247.214 73.5768 247.745 73.2628 248.058 73.2628C248.324 73.2628 248.509 73.3956 248.613 73.6614C248.645 73.7419 248.661 73.8345 248.661 73.9392C248.661 74.1566 248.529 74.4465 248.263 74.8088C247.805 75.453 247.085 76.1133 246.104 76.7897C244.97 77.5789 243.8 77.9734 242.594 77.9734Z" fill="#363C54"/>
<path fill-rule="evenodd" clip-rule="evenodd" d="M253.692 76.4032C254.367 76.4032 255.292 75.912 256.466 74.9297C256.82 74.6397 257.15 74.3217 257.455 73.9754C257.294 73.8224 257.158 73.6412 257.045 73.4319C256.868 73.1017 256.78 72.7595 256.78 72.4052C256.78 71.6483 257.053 71.1007 257.6 70.7625C257.857 70.6015 258.135 70.521 258.432 70.521C258.851 70.521 259.152 70.6418 259.337 70.8833C259.667 70.0539 259.832 69.4258 259.832 68.9991C259.832 68.532 259.651 68.2985 259.289 68.2985C258.501 68.2985 257.423 69.0514 256.056 70.5572C255.509 71.1531 254.99 71.8053 254.5 72.5139C253.487 73.9714 252.98 75.0102 252.98 75.6302C252.98 76.1456 253.217 76.4032 253.692 76.4032ZM252.932 77.9372C252.272 77.9372 251.721 77.7601 251.279 77.4058C250.764 76.987 250.431 76.367 250.278 75.5456C250.23 75.296 250.206 75.0343 250.206 74.7605C250.206 74.1647 250.33 73.5326 250.579 72.8642C250.949 71.8738 251.52 70.9176 252.292 69.9956C253.064 69.0735 253.853 68.2905 254.657 67.6463C255.984 66.5914 257.182 66.064 258.251 66.064C259.064 66.064 259.765 66.2914 260.356 66.7464C260.947 67.2014 261.243 67.8717 261.243 68.7575C261.243 69.4661 261.07 70.2915 260.724 71.2336C260.507 71.8134 260.246 72.377 259.94 72.9246C260.463 72.9166 260.95 72.6709 261.4 72.1878L261.762 71.7892C261.971 71.5557 262.188 71.4389 262.413 71.4389C262.735 71.4389 262.896 71.604 262.896 71.9342C262.896 72.1435 262.813 72.3911 262.648 72.677C262.483 72.9629 262.312 73.1944 262.136 73.3715C261.725 73.7741 261.154 74.0841 260.423 74.3015C259.908 74.4546 259.389 74.531 258.867 74.531C257.162 76.8018 255.183 77.9372 252.932 77.9372Z" fill="#363C54"/>
<path fill-rule="evenodd" clip-rule="evenodd" d="M260.169 77.901C259.719 77.901 259.329 77.7963 258.999 77.5869C258.718 77.4098 258.577 77.2447 258.577 77.0917C258.577 77.0112 258.666 76.8823 258.842 76.7052C258.915 76.6408 258.991 76.5643 259.072 76.4757C259.321 76.218 259.828 75.3725 260.592 73.9392C261.147 72.8924 261.762 71.7771 262.437 70.5934C263.692 68.379 264.757 67.0423 265.634 66.5833C266.092 66.3418 266.523 66.221 266.925 66.221C267.222 66.221 267.475 66.2572 267.685 66.3297C268.006 66.4505 268.167 66.5954 268.167 66.7645C268.167 66.8612 268.091 67.0182 267.938 67.2356C267.809 67.4289 267.472 68.0408 266.925 69.0715C267.479 68.4756 267.946 68.0006 268.324 67.6463C269.426 66.5994 270.443 66.076 271.376 66.076C271.939 66.076 272.429 66.2814 272.847 66.692C273.402 67.2396 273.68 67.9603 273.68 68.8541C273.68 69.5144 273.451 70.219 272.992 70.9679C271.504 73.3997 270.761 74.8008 270.761 75.1712C270.761 75.292 270.817 75.3524 270.929 75.3524C271.549 75.3524 272.916 74.1647 275.031 71.7892C275.24 71.5557 275.457 71.4389 275.682 71.4389C276.004 71.4389 276.165 71.604 276.165 71.9342C276.157 72.5381 275.316 73.7137 273.644 75.4611C272.108 77.0555 270.733 77.8526 269.518 77.8526C268.915 77.8526 268.388 77.6795 267.938 77.3333C267.439 76.9467 267.19 76.4234 267.19 75.7631C267.19 75.2477 267.339 74.676 267.636 74.0479C267.934 73.4198 268.525 72.4314 269.41 71.0826C270.294 69.7338 270.737 68.842 270.737 68.4072C270.737 68.1656 270.628 68.0449 270.411 68.0449C269.872 68.0449 268.839 68.842 267.31 70.4364C266.941 70.831 266.454 71.3946 265.851 72.1274C264.717 73.5044 263.945 74.531 263.535 75.2074C263.068 75.9885 262.711 76.524 262.461 76.8139C261.842 77.5386 261.078 77.901 260.169 77.901Z" fill="#363C54"/>
<path fill-rule="evenodd" clip-rule="evenodd" d="M273.438 77.901C272.988 77.901 272.598 77.7963 272.268 77.5869C271.987 77.4098 271.846 77.2447 271.846 77.0917C271.846 77.0112 271.934 76.8823 272.112 76.7052C272.184 76.6408 272.26 76.5643 272.341 76.4757C272.59 76.218 273.097 75.3725 273.861 73.9392C274.415 72.8924 275.031 71.7771 275.706 70.5934C276.961 68.379 278.026 67.0423 278.903 66.5833C279.361 66.3418 279.791 66.221 280.193 66.221C280.491 66.221 280.744 66.2572 280.953 66.3297C281.275 66.4505 281.436 66.5954 281.436 66.7645C281.436 66.8612 281.36 67.0182 281.207 67.2356C281.078 67.4289 280.74 68.0408 280.193 69.0715C280.748 68.4756 281.215 68.0006 281.593 67.6463C282.695 66.5994 283.712 66.076 284.645 66.076C285.208 66.076 285.698 66.2814 286.116 66.692C286.671 67.2396 286.949 67.9603 286.949 68.8541C286.949 69.5144 286.72 70.219 286.261 70.9679C284.773 73.3997 284.029 74.8008 284.029 75.1712C284.029 75.292 284.086 75.3524 284.198 75.3524C284.818 75.3524 286.185 74.1647 288.3 71.7892C288.509 71.5557 288.726 71.4389 288.951 71.4389C289.273 71.4389 289.434 71.604 289.434 71.9342C289.426 72.5381 288.585 73.7137 286.913 75.4611C285.377 77.0555 284.001 77.8526 282.787 77.8526C282.184 77.8526 281.657 77.6795 281.207 77.3333C280.708 76.9467 280.459 76.4234 280.459 75.7631C280.459 75.2477 280.608 74.676 280.905 74.0479C281.203 73.4198 281.794 72.4314 282.678 71.0826C283.563 69.7338 284.005 68.842 284.005 68.4072C284.005 68.1656 283.897 68.0449 283.68 68.0449C283.141 68.0449 282.108 68.842 280.58 70.4364C280.21 70.831 279.723 71.3946 279.12 72.1274C277.986 73.5044 277.214 74.531 276.804 75.2074C276.337 75.9885 275.98 76.524 275.73 76.8139C275.111 77.5386 274.347 77.901 273.438 77.901Z" fill="#363C54"/>
<path fill-rule="evenodd" clip-rule="evenodd" d="M291.653 77.9614C290.455 77.9614 289.518 77.5668 288.843 76.7777C288.208 76.0368 287.89 75.0907 287.89 73.9392C287.89 72.8521 288.216 71.7127 288.867 70.521C289.277 69.756 289.735 69.0796 290.242 68.4918C291.625 66.8732 293.097 66.064 294.657 66.064C295.1 66.064 295.498 66.1445 295.851 66.3055C296.72 66.6921 297.154 67.449 297.154 68.5763C297.154 69.5184 296.961 70.3076 296.575 70.9437C296.254 71.4832 295.807 71.9785 295.236 72.4294C294.32 73.1541 293.282 73.5165 292.124 73.5165C291.786 73.5165 291.46 73.4762 291.147 73.3956C291.018 73.8869 290.954 74.3297 290.954 74.7243C290.954 75.6181 291.36 76.065 292.172 76.065C292.55 76.065 293.057 75.9201 293.692 75.6302C294.11 75.4369 294.529 75.1913 294.947 74.8934C295.735 74.3297 296.8 73.295 298.143 71.7892C298.352 71.5557 298.57 71.4389 298.795 71.4389C299.116 71.4389 299.277 71.604 299.277 71.9342C299.269 72.3287 298.911 72.9608 298.204 73.8305C298.083 73.9835 297.814 74.3096 297.396 74.8089C296.977 75.3081 296.454 75.8074 295.827 76.3066C294.452 77.4098 293.061 77.9614 291.653 77.9614ZM292.112 72.3207C292.385 72.3207 292.683 72.2643 293.005 72.1516C293.72 71.8939 294.34 71.4953 294.862 70.9558C295.385 70.4163 295.646 69.7882 295.646 69.0715C295.638 68.4273 295.437 68.1053 295.043 68.1053C294.657 68.1053 294.263 68.2864 293.861 68.6488C293.073 69.3574 292.369 70.3961 291.75 71.7651C291.678 71.918 291.613 72.0711 291.557 72.2241C291.774 72.2885 291.959 72.3207 292.112 72.3207Z" fill="#363C54"/>
<path fill-rule="evenodd" clip-rule="evenodd" d="M301.497 77.9614C301.006 77.9614 300.514 77.8788 300.019 77.7138C299.524 77.5487 299.08 77.2366 298.686 76.7777C298.292 76.3187 298.015 75.747 297.854 75.0625C297.773 74.7001 297.733 74.3257 297.733 73.9392C297.733 72.8521 298.059 71.7127 298.71 70.521C299.12 69.756 299.579 69.0796 300.085 68.4918C301.469 66.8732 302.94 66.064 304.5 66.064C304.943 66.064 305.337 66.1485 305.683 66.3176C306.446 66.68 306.828 67.4248 306.828 68.5522C306.828 69.0111 306.76 69.3977 306.623 69.7117C306.471 70.0579 306.254 70.2311 305.972 70.2311C305.642 70.2311 305.477 70.0579 305.477 69.7117C305.477 69.5829 305.489 69.454 305.514 69.3252C305.538 69.1964 305.55 69.0232 305.55 68.8058C305.55 68.3388 305.329 68.1053 304.886 68.1053C304.5 68.1053 304.106 68.2864 303.704 68.6488C302.916 69.3574 302.212 70.3961 301.593 71.7651C301.062 72.9327 300.797 73.9191 300.797 74.7243C300.797 75.6181 301.203 76.065 302.015 76.065C302.393 76.065 302.9 75.9201 303.535 75.6302C303.954 75.4369 304.372 75.1913 304.79 74.8934C305.578 74.3297 306.643 73.295 307.986 71.7892C308.196 71.5557 308.413 71.4389 308.638 71.4389C308.959 71.4389 309.121 71.604 309.121 71.9342C309.112 72.3287 308.754 72.9608 308.047 73.8305C307.926 73.9835 307.657 74.3096 307.239 74.8089C306.82 75.3081 306.298 75.8074 305.67 76.3066C304.295 77.4098 302.904 77.9614 301.497 77.9614Z" fill="#363C54"/>
<path fill-rule="evenodd" clip-rule="evenodd" d="M309.313 77.9009C308.775 77.9009 308.348 77.8285 308.035 77.6835C307.472 77.4178 307.054 76.9628 306.78 76.3186C306.668 76.061 306.611 75.7671 306.611 75.4369C306.611 75.2195 306.656 74.8894 306.744 74.4465C306.937 73.5044 307.862 71.8214 309.519 69.3977C310.677 67.6986 311.73 66.1928 312.679 64.8803C311.167 64.8803 310.411 64.4454 310.411 63.5758C310.411 63.3101 310.473 63.0826 310.598 62.8933C310.723 62.7041 310.837 62.6095 310.942 62.6095C311.006 62.6095 311.103 62.682 311.231 62.8269C311.641 63.2778 312.257 63.5033 313.077 63.5033L313.68 63.4912L314.235 62.7665C315.112 61.5989 315.872 60.8782 316.515 60.6044C316.724 60.5159 316.965 60.4716 317.239 60.4716C317.681 60.4716 318.071 60.6165 318.409 60.9064C318.61 61.0755 318.71 61.2245 318.71 61.3533C318.71 61.4419 318.614 61.5748 318.421 61.7519C318.099 62.0579 317.657 62.6377 317.094 63.4912C317.898 63.4832 318.357 63.4671 318.469 63.4429C318.638 63.4187 318.771 63.4067 318.867 63.4067C319.092 63.4067 319.205 63.5355 319.205 63.7932C319.205 64.4615 318.951 64.8158 318.445 64.8561C318.26 64.8722 317.504 64.8803 316.177 64.8803C314.175 67.9321 312.18 70.992 310.194 74.06C309.937 74.4465 309.808 74.7605 309.808 75.0021C309.808 75.1793 309.854 75.3141 309.947 75.4067C310.039 75.4993 310.154 75.5456 310.29 75.5456C310.934 75.5456 312.373 74.2935 314.609 71.7892C314.818 71.5557 315.035 71.4389 315.26 71.4389C315.582 71.4389 315.743 71.604 315.743 71.9341C315.735 72.4978 314.906 73.6936 313.258 75.5215C311.826 77.1078 310.512 77.9009 309.313 77.9009Z" fill="#363C54"/>
<path fill-rule="evenodd" clip-rule="evenodd" d="M317.962 77.9614C316.764 77.9614 315.827 77.5668 315.152 76.7777C314.517 76.0368 314.199 75.0907 314.199 73.9392C314.199 72.8521 314.524 71.7127 315.176 70.521C315.586 69.756 316.044 69.0796 316.551 68.4918C317.934 66.8732 319.406 66.064 320.966 66.064C321.408 66.064 321.807 66.1445 322.16 66.3055C323.029 66.6921 323.463 67.449 323.463 68.5763C323.463 69.5184 323.27 70.3076 322.884 70.9437C322.562 71.4832 322.116 71.9785 321.545 72.4294C320.628 73.1541 319.591 73.5165 318.433 73.5165C318.095 73.5165 317.769 73.4762 317.456 73.3956C317.327 73.8869 317.263 74.3297 317.263 74.7243C317.263 75.6181 317.669 76.065 318.481 76.065C318.859 76.065 319.366 75.9201 320.001 75.6302C320.419 75.4369 320.837 75.1913 321.256 74.8934C322.044 74.3297 323.109 73.295 324.452 71.7892C324.661 71.5557 324.878 71.4389 325.104 71.4389C325.425 71.4389 325.586 71.604 325.586 71.9342C325.578 72.3287 325.22 72.9608 324.512 73.8305C324.392 73.9835 324.123 74.3096 323.704 74.8089C323.286 75.3081 322.763 75.8074 322.136 76.3066C320.761 77.4098 319.37 77.9614 317.962 77.9614ZM318.421 72.3207C318.694 72.3207 318.992 72.2643 319.313 72.1516C320.029 71.8939 320.649 71.4953 321.171 70.9558C321.694 70.4163 321.955 69.7882 321.955 69.0715C321.947 68.4273 321.746 68.1053 321.352 68.1053C320.966 68.1053 320.572 68.2864 320.17 68.6488C319.382 69.3574 318.678 70.3961 318.059 71.765C317.987 71.918 317.922 72.0711 317.866 72.2241C318.083 72.2885 318.268 72.3207 318.421 72.3207ZM322.016 65.3151C321.678 65.3151 321.509 65.1863 321.509 64.9286C321.509 64.6065 321.959 64.0026 322.86 63.1168C323.688 62.3116 324.368 61.9089 324.898 61.9089C325.212 61.9089 325.476 61.9955 325.689 62.1686C325.902 62.3417 326.008 62.4847 326.008 62.5974C326.008 62.8873 325.787 63.145 325.345 63.3704C324.951 63.5798 324.641 63.761 324.416 63.914L322.558 65.1339C322.373 65.2547 322.192 65.3151 322.016 65.3151Z" fill="#363C54"/>
<path fill-rule="evenodd" clip-rule="evenodd" d="M327.806 77.9614C326.608 77.9614 325.671 77.5668 324.995 76.7777C324.36 76.0368 324.042 75.0907 324.042 73.9392C324.042 72.8521 324.368 71.7127 325.019 70.521C325.43 69.756 325.888 69.0796 326.394 68.4918C327.778 66.8732 329.249 66.064 330.809 66.064C331.252 66.064 331.65 66.1445 332.004 66.3055C332.872 66.6921 333.306 67.449 333.306 68.5763C333.306 69.5184 333.113 70.3076 332.728 70.9437C332.406 71.4832 331.959 71.9785 331.388 72.4294C330.472 73.1541 329.434 73.5165 328.276 73.5165C327.939 73.5165 327.613 73.4762 327.299 73.3956C327.17 73.8869 327.106 74.3297 327.106 74.7243C327.106 75.6181 327.512 76.065 328.324 76.065C328.702 76.065 329.209 75.9201 329.844 75.6302C330.263 75.4369 330.681 75.1913 331.099 74.8934C331.887 74.3297 332.953 73.295 334.296 71.7892C334.505 71.5557 334.722 71.4389 334.947 71.4389C335.269 71.4389 335.43 71.604 335.43 71.9342C335.422 72.3287 335.064 72.9608 334.356 73.8305C334.235 73.9835 333.966 74.3096 333.548 74.8089C333.13 75.3081 332.607 75.8074 331.98 76.3066C330.604 77.4098 329.213 77.9614 327.806 77.9614ZM328.264 72.3207C328.538 72.3207 328.835 72.2643 329.157 72.1516C329.873 71.8939 330.492 71.4953 331.015 70.9558C331.537 70.4163 331.799 69.7882 331.799 69.0715C331.791 68.4273 331.59 68.1053 331.195 68.1053C330.809 68.1053 330.415 68.2864 330.013 68.6488C329.225 69.3574 328.522 70.3961 327.902 71.7651C327.83 71.918 327.766 72.0711 327.709 72.2241C327.926 72.2885 328.111 72.3207 328.264 72.3207Z" fill="#363C54"/>
</svg>
