<svg width="53" height="59" viewBox="0 0 53 59" fill="none" xmlns="http://www.w3.org/2000/svg">
<path fill-rule="evenodd" clip-rule="evenodd" d="M3.40123 0.00847524C2.53928 0.00622748 1.71178 0.331429 1.10077 0.91254C0.489761 1.49365 0.145291 2.28307 0.143142 3.10713C0.140993 3.93119 0.481341 4.7224 1.08931 5.30669C1.69728 5.89098 2.52308 6.22049 3.38503 6.22274L6.63502 6.23121L6.62151 11.4098C6.61355 14.4648 7.34968 17.4797 8.7716 20.2159C10.1935 22.9521 12.2622 25.3344 14.8138 27.174L16.2541 28.2135C16.8336 28.6293 16.8315 29.4579 16.2497 29.8707L14.804 30.9026C12.2429 32.7289 10.1618 35.1004 8.72567 37.8291C7.28949 40.5578 6.53765 43.5689 6.52968 46.6239L6.51618 51.8025L3.26619 51.794C2.40424 51.7918 1.57674 52.117 0.965726 52.6981C0.354716 53.2792 0.0102464 54.0686 0.00809747 54.8927C0.0059485 55.7167 0.346296 56.5079 0.954267 57.0922C1.56224 57.6765 2.38803 58.006 3.24998 58.0083L48.7498 58.1269C49.6118 58.1292 50.4393 57.804 51.0503 57.2229C51.6613 56.6418 52.0058 55.8523 52.0079 55.0283C52.0101 54.2042 51.6697 53.413 51.0618 52.8287C50.4538 52.2444 49.628 51.9149 48.766 51.9127L45.516 51.9042L45.5296 46.7256C45.5375 43.6706 44.8014 40.6557 43.3795 37.9195C41.9575 35.1833 39.8889 32.801 37.3373 30.9614L35.897 29.9219C35.7627 29.8251 35.6538 29.6997 35.579 29.5557C35.5042 29.4117 35.4654 29.253 35.4658 29.0922C35.4663 28.9314 35.5058 28.7729 35.5814 28.6293C35.657 28.4857 35.7665 28.3609 35.9013 28.2648L37.347 27.2328C39.9082 25.4065 41.9892 23.035 43.4254 20.3063C44.8616 17.5776 45.6134 14.5665 45.6214 11.5115L45.6349 6.33292L48.8849 6.34139C49.7468 6.34364 50.5743 6.01844 51.1853 5.43733C51.7963 4.85622 52.1408 4.0668 52.143 3.24274C52.1451 2.41867 51.8048 1.62747 51.1968 1.04318C50.5888 0.45889 49.763 0.129376 48.9011 0.127129L3.40123 0.00847524ZM39.1349 6.31597L13.135 6.24817L13.1215 11.4267C13.116 13.517 13.6197 15.5799 14.5926 17.452C15.5655 19.3241 16.9809 20.9541 18.7267 22.2128L20.167 23.2523C24.2068 26.1628 24.1916 31.9628 20.1368 34.8522L18.6911 35.8842C16.9387 37.1338 15.5148 38.7563 14.5322 40.6234C13.5495 42.4904 13.0351 44.5506 13.0297 46.6409L13.0162 51.8194L39.0161 51.8872L39.0296 46.7087C39.035 44.6184 38.5314 42.5555 37.5585 40.6834C36.5856 38.8113 35.1702 37.1813 33.4243 35.9226L31.9841 34.8831C31.044 34.2054 30.2819 33.3277 29.758 32.3196C29.2341 31.3115 28.9629 30.2008 28.9659 29.0752C28.9688 27.9497 29.2458 26.8404 29.7749 25.835C30.304 24.8297 31.0707 23.956 32.0143 23.2832L33.46 22.2512C35.2124 21.0016 36.6362 19.3791 37.6189 17.512C38.6015 15.645 39.116 13.5848 39.1214 11.4945L39.1349 6.31597Z" fill="#26C6BA"/>
</svg>
