<svg width="45" height="41" viewBox="0 0 45 41" fill="none" xmlns="http://www.w3.org/2000/svg">
<g clip-path="url(#clip0)">
<path d="M5.8956 38.349C7.11002 37.7956 8.89912 38.385 11.1641 39.1309C13.6861 39.9615 16.8247 40.9951 20.7419 40.9991H20.7618C24.1957 40.9991 27.8942 40.1075 31.7543 38.349L37.65 35.6632L37.0603 34.5889C35.5108 31.7655 31.866 30.405 28.5816 31.4235C27.0267 31.9059 25.5884 32.2248 24.2838 32.4272C20.4889 28.0894 14.1858 25.9917 8.1658 27.293C4.36541 28.1144 1.04066 29.8537 0 30.2917L4.71652 38.8861L5.8956 38.349ZM8.77432 29.6303C13.1339 28.6879 17.7881 29.9183 21.0166 32.7261C19.1521 32.7729 16.4801 32.5474 14.9434 31.8921C14.8272 32.1138 15.3643 31.0892 13.8071 34.0597C14.0518 34.167 19.908 36.6517 29.4313 33.6976C31.0392 33.1985 32.7863 33.6166 33.9263 34.6736L30.575 36.2003C27.0841 37.7906 23.7827 38.5968 20.7616 38.5968C20.7561 38.5968 20.7502 38.5968 20.7446 38.5968C17.2878 38.5934 14.5106 37.6787 12.0602 36.8717C10.2328 36.2698 8.57148 35.7226 7.00824 35.7226C6.65951 35.7226 6.31552 35.7499 5.97584 35.8098L3.54314 31.3768C5.58545 30.4967 7.12443 29.9869 8.77432 29.6303Z" fill="white"/>
<path d="M21.1826 3.60432V25.3045C21.1826 27.2914 22.9568 28.9078 25.1375 28.9078H44.9999V26.5056H43.6816C42.9546 26.5056 42.3633 25.9668 42.3633 25.3045C42.3633 24.6422 42.9546 24.1034 43.6816 24.1034H44.9999C44.9999 23.0398 44.9999 1.14972 44.9999 0.000976562H25.1375C22.9568 0.000976562 21.1826 1.61744 21.1826 3.60432ZM39.9535 26.5056H25.1376C24.4107 26.5056 23.8193 25.9668 23.8193 25.3045C23.8193 24.6422 24.4107 24.1034 25.1376 24.1026H39.9535C39.8072 24.4793 39.7268 24.8834 39.7268 25.3045C39.7268 25.7255 39.8071 26.1296 39.9535 26.5056ZM29.0924 2.40321H42.3633V21.7011H29.0924V2.40321ZM26.4558 21.7011H25.1375C24.6754 21.7011 24.2318 21.7744 23.8192 21.9077V3.60432C23.8192 2.94203 24.4106 2.40321 25.1375 2.40321H26.4558V21.7011Z" fill="white"/>
</g>
<defs>
<clipPath id="clip0">
<rect width="45" height="41" fill="white"/>
</clipPath>
</defs>
</svg>
