<svg width="51" height="71" viewBox="0 0 51 71" fill="none" xmlns="http://www.w3.org/2000/svg">
<path d="M25.5 0.083313C11.7938 0.083313 0.708374 11.1687 0.708374 24.875C0.708374 43.4687 25.5 70.9167 25.5 70.9167C25.5 70.9167 50.2917 43.4687 50.2917 24.875C50.2917 11.1687 39.2063 0.083313 25.5 0.083313ZM25.5 33.7292C23.1518 33.7292 20.8997 32.7963 19.2392 31.1358C17.5787 29.4753 16.6459 27.2233 16.6459 24.875C16.6459 22.5267 17.5787 20.2746 19.2392 18.6141C20.8997 16.9537 23.1518 16.0208 25.5 16.0208C27.8483 16.0208 30.1004 16.9537 31.7609 18.6141C33.4214 20.2746 34.3542 22.5267 34.3542 24.875C34.3542 27.2233 33.4214 29.4753 31.7609 31.1358C30.1004 32.7963 27.8483 33.7292 25.5 33.7292Z" fill="#26C6BA"/>
</svg>
