<svg width="54" height="37" viewBox="0 0 54 37" fill="none" xmlns="http://www.w3.org/2000/svg">
<path d="M46.4035 16.027H13.7384C10.347 16.027 7.5961 12.8883 7.5961 9.0135C7.5961 5.13995 10.3461 2 13.7384 2H46.4035" stroke="#53E2D3" stroke-width="3.19107" stroke-linecap="round" stroke-linejoin="round"/>
<path d="M12.1863 5.84079H45.956" stroke="#FFD524" stroke-width="1.03185" stroke-linecap="round" stroke-linejoin="round"/>
<path d="M10.3957 9.01355H45.0605" stroke="#FFD524" stroke-width="1.03185" stroke-linecap="round" stroke-linejoin="round"/>
<path d="M12.1863 12.1862H45.956" stroke="#FFD524" stroke-width="1.03185" stroke-linecap="round" stroke-linejoin="round"/>
<path fill-rule="evenodd" clip-rule="evenodd" d="M21.426 12.5878L19.0265 10.0317L16.6271 12.5878V4.96408H21.426V12.5878Z" fill="#E5287E"/>
<path d="M2 21.1465H45.858C49.2491 21.1465 52 24.2852 52 28.1601C52 32.0333 49.2503 35.1735 45.858 35.1735H2" stroke="#E5287E" stroke-width="3.19107" stroke-linecap="round" stroke-linejoin="round"/>
<path d="M47.4098 31.3329L2.44757 31.3329" stroke="#57E5D4" stroke-width="1.03185" stroke-linecap="round" stroke-linejoin="round"/>
<path d="M49.2007 28.1601L3.34302 28.1601" stroke="#57E5D4" stroke-width="1.03185" stroke-linecap="round" stroke-linejoin="round"/>
<path d="M47.4098 24.9875L2.44757 24.9875" stroke="#57E5D4" stroke-width="1.03185" stroke-linecap="round" stroke-linejoin="round"/>
<path fill-rule="evenodd" clip-rule="evenodd" d="M42.7076 31.9718L40.3081 29.4157L37.9086 31.9718V24.3481H42.7076V31.9718Z" fill="#F2B111"/>
</svg>
