<svg width="27" height="27" viewBox="0 0 27 27" fill="none" xmlns="http://www.w3.org/2000/svg">
<path d="M11.8125 -6.34789e-05C5.29875 -6.34789e-05 0 5.29869 0 11.8124C0 18.3262 5.29875 23.6249 11.8125 23.6249C13.8038 23.6249 15.7612 23.1524 17.415 22.2412C17.5475 22.4006 17.6943 22.5475 17.8538 22.6799L21.2288 26.0549C21.5404 26.4056 21.9204 26.6889 22.3455 26.8873C22.7706 27.0858 23.2317 27.1953 23.7006 27.2091C24.1696 27.2229 24.6364 27.1408 25.0724 26.9676C25.5084 26.7945 25.9044 26.5341 26.2362 26.2023C26.5679 25.8706 26.8283 25.4746 27.0014 25.0386C27.1746 24.6026 27.2568 24.1358 27.2429 23.6668C27.2291 23.1979 27.1196 22.7367 26.9212 22.3117C26.7227 21.8866 26.4394 21.5066 26.0888 21.1949L22.7138 17.8199C22.5493 17.6555 22.3684 17.5084 22.1737 17.3812C23.085 15.7274 23.6588 13.8037 23.6588 11.7787C23.6588 5.26494 18.36 -0.0338135 11.8462 -0.0338135L11.8125 -6.34789e-05ZM11.8125 3.37494C16.5037 3.37494 20.25 7.12119 20.25 11.8124C20.25 14.0399 19.44 16.0987 18.0225 17.6174L17.9212 17.7187C17.7618 17.8512 17.615 17.998 17.4825 18.1574C15.9975 19.5074 13.9725 20.2837 11.7788 20.2837C7.0875 20.2837 3.34125 16.5374 3.34125 11.8462C3.34125 7.15494 7.0875 3.40869 11.7788 3.40869L11.8125 3.37494Z" fill="white"/>
</svg>
