<svg width="62" height="62" viewBox="0 0 62 62" fill="none" xmlns="http://www.w3.org/2000/svg">
<path d="M27.125 -7.5683e-05C12.1675 -7.5683e-05 0 12.1674 0 27.1249C0 42.0824 12.1675 54.2499 27.125 54.2499C31.6975 54.2499 36.1925 53.1649 39.99 51.0724C40.2942 51.4385 40.6314 51.7757 40.9975 52.0799L48.7475 59.8299C49.4631 60.6352 50.3358 61.2856 51.3119 61.7414C52.288 62.1972 53.3469 62.4486 54.4237 62.4803C55.5005 62.512 56.5724 62.3233 57.5736 61.9257C58.5748 61.5282 59.4842 60.9301 60.246 60.1684C61.0077 59.4067 61.6057 58.4973 62.0033 57.4961C62.4009 56.4948 62.5896 55.4229 62.5579 54.3461C62.5262 53.2693 62.2747 52.2104 61.819 51.2343C61.3632 50.2582 60.7127 49.3855 59.9075 48.6699L52.1575 40.9199C51.78 40.5423 51.3644 40.2046 50.9175 39.9124C53.01 36.1149 54.3275 31.6974 54.3275 27.0474C54.3275 12.0899 42.16 -0.0775757 27.2025 -0.0775757L27.125 -7.5683e-05ZM27.125 7.74992C37.8975 7.74992 46.5 16.3524 46.5 27.1249C46.5 32.2399 44.64 36.9674 41.385 40.4549L41.1525 40.6874C40.7864 40.9916 40.4492 41.3289 40.145 41.6949C36.735 44.7949 32.085 46.5774 27.0475 46.5774C16.275 46.5774 7.6725 37.9749 7.6725 27.2024C7.6725 16.4299 16.275 7.82742 27.0475 7.82742L27.125 7.74992Z" fill="#26C6BA"/>
</svg>
